<?xml version="1.0" encoding="UTF-8" standalone="no"?>
<!-- Created with Inkscape (http://www.inkscape.org/) -->

<svg
   width="201.40828mm"
   height="125.00964mm"
   viewBox="0 0 201.40828 125.00964"
   version="1.1"
   id="svg533"
   xmlns="http://www.w3.org/2000/svg"
   xmlns:svg="http://www.w3.org/2000/svg">
  <defs
     id="defs530" />
  <g
     id="layer1"
     transform="translate(-5.0161072,-68.858671)">
    <g
       id="g398"
       transform="matrix(0.6177165,0,0,0.6177165,5.0144985,68.974232)">
      <path
         d="m 245.499,32.0856 c -7.265,5.1557 -19.779,6.4552 -27.949,2.9025 -8.17,-3.5527 -8.903,-10.6122 -1.637,-15.7679 7.266,-5.1557 19.779,-6.4552 27.949,-2.9025 8.17,3.5527 8.903,10.6122 1.637,15.7679 z"
         fill="#000000"
         id="path2" />
      <path
         d="m 144.57,64.6351 c -7.266,5.1558 -19.779,6.4553 -27.949,2.9026 -8.17,-3.5527 -8.903,-10.6123 -1.638,-15.768 7.266,-5.1557 19.779,-6.4552 27.949,-2.9025 8.171,3.5527 8.904,10.6122 1.638,15.7679 z"
         fill="#000000"
         id="path4" />
      <path
         d="m 215.123,95.3143 c -7.266,5.1557 -19.779,6.4557 -27.949,2.9025 -8.171,-3.5527 -8.904,-10.6122 -1.638,-15.7679 7.266,-5.1558 19.779,-6.4553 27.949,-2.9026 8.17,3.5527 8.903,10.6123 1.638,15.768 z"
         fill="#000000"
         id="path6" />
      <path
         d="m 180.698,161.415 c -7.266,5.156 -19.779,6.456 -27.949,2.903 -8.17,-3.553 -8.903,-10.612 -1.638,-15.768 7.266,-5.156 19.779,-6.455 27.949,-2.903 8.171,3.553 8.904,10.613 1.638,15.768 z"
         fill="#000000"
         id="path8" />
      <path
         d="m 39.5925,100.057 c -7.2658,5.156 -19.779,6.455 -27.9491,2.903 -8.17016,-3.5531 -8.90329,-10.6127 -1.6375,-15.7684 7.2657,-5.1557 19.779,-6.4552 27.9491,-2.9025 8.1701,3.5527 8.9032,10.6122 1.6375,15.7679 z"
         fill="#000000"
         id="path10" />
      <path
         d="m 110.145,130.736 c -7.266,5.156 -19.7788,6.455 -27.9489,2.903 -8.1701,-3.553 -8.9033,-10.613 -1.6375,-15.768 7.2657,-5.156 19.7794,-6.455 27.9494,-2.903 8.17,3.553 8.903,10.612 1.637,15.768 z"
         fill="#000000"
         id="path12" />
      <path
         d="m 316.052,62.7648 c -7.266,5.1557 -19.779,6.4552 -27.949,2.9025 -8.17,-3.5527 -8.903,-10.6123 -1.637,-15.768 7.265,-5.1557 19.779,-6.4552 27.949,-2.9025 8.17,3.5527 8.903,10.6123 1.637,15.768 z"
         fill="#000000"
         id="path14" />
      <path
         d="m 215.123,95.3143 c -7.266,5.1557 -19.779,6.4557 -27.949,2.9025 -8.171,-3.5527 -8.904,-10.6122 -1.638,-15.7679 7.266,-5.1558 19.779,-6.4553 27.949,-2.9026 8.17,3.5527 8.903,10.6123 1.638,15.768 z"
         fill="#000000"
         id="path16" />
      <path
         d="m 285.675,125.993 c -7.265,5.156 -19.779,6.456 -27.949,2.903 -8.17,-3.553 -8.903,-10.612 -1.637,-15.768 7.265,-5.156 19.779,-6.455 27.949,-2.903 8.17,3.553 8.903,10.613 1.637,15.768 z"
         fill="#000000"
         id="path18" />
      <path
         d="m 251.251,192.095 c -7.266,5.155 -19.779,6.455 -27.949,2.902 -8.171,-3.553 -8.904,-10.612 -1.638,-15.768 7.266,-5.156 19.779,-6.455 27.949,-2.902 8.17,3.552 8.903,10.612 1.638,15.768 z"
         fill="#000000"
         id="path20" />
      <path
         d="m 110.145,130.736 c -7.266,5.156 -19.7788,6.455 -27.9489,2.903 -8.1701,-3.553 -8.9033,-10.613 -1.6375,-15.768 7.2657,-5.156 19.7794,-6.455 27.9494,-2.903 8.17,3.553 8.903,10.612 1.637,15.768 z"
         fill="#000000"
         id="path22" />
      <path
         d="m 180.698,161.415 c -7.266,5.156 -19.779,6.456 -27.949,2.903 -8.17,-3.553 -8.903,-10.612 -1.638,-15.768 7.266,-5.156 19.779,-6.455 27.949,-2.903 8.171,3.553 8.904,10.613 1.638,15.768 z"
         fill="#000000"
         id="path24" />
      <path
         d="m 145.642,50.3503 65.9,-20.5198 m 16.111,7.1552 -21.071,40.777 M 42.7624,83.6116 110.485,62.0933 m 17.898,7.4307 -24.818,43.96 m 6.92,2.496 70.706,-22.8647 m 15.44,7.0817 -22.336,44 m 43.602,-61.7481 64.355,-21.6244 m 16.131,6.843 -21.095,40.7925 m -96.097,38.293 70.729,-22.616 m 15.441,6.745 -23.078,43.89 m 1.216,-142.6864 c -7.265,5.1557 -19.779,6.4552 -27.949,2.9025 -8.17,-3.5527 -8.903,-10.6122 -1.637,-15.7679 7.266,-5.1557 19.779,-6.4552 27.949,-2.9025 8.17,3.5527 8.903,10.6122 1.637,15.7679 z M 144.57,64.6351 c -7.266,5.1558 -19.779,6.4553 -27.949,2.9026 -8.17,-3.5527 -8.903,-10.6123 -1.638,-15.768 7.266,-5.1557 19.779,-6.4552 27.949,-2.9025 8.171,3.5527 8.904,10.6122 1.638,15.7679 z m 70.553,30.6792 c -7.266,5.1557 -19.779,6.4557 -27.949,2.9025 -8.171,-3.5527 -8.904,-10.6122 -1.638,-15.7679 7.266,-5.1558 19.779,-6.4553 27.949,-2.9026 8.17,3.5527 8.903,10.6123 1.638,15.768 z m -34.425,66.1007 c -7.266,5.156 -19.779,6.456 -27.949,2.903 -8.17,-3.553 -8.903,-10.612 -1.638,-15.768 7.266,-5.156 19.779,-6.455 27.949,-2.903 8.171,3.553 8.904,10.613 1.638,15.768 z M 39.5925,100.057 c -7.2658,5.156 -19.779,6.455 -27.9491,2.903 -8.17016,-3.5531 -8.90329,-10.6127 -1.6375,-15.7684 7.2657,-5.1557 19.779,-6.4552 27.9491,-2.9025 8.1701,3.5527 8.9032,10.6122 1.6375,15.7679 z m 70.5525,30.679 c -7.266,5.156 -19.7788,6.455 -27.9489,2.903 -8.1701,-3.553 -8.9033,-10.613 -1.6375,-15.768 7.2657,-5.156 19.7794,-6.455 27.9494,-2.903 8.17,3.553 8.903,10.612 1.637,15.768 z M 316.052,62.7648 c -7.266,5.1557 -19.779,6.4552 -27.949,2.9025 -8.17,-3.5527 -8.903,-10.6123 -1.637,-15.768 7.265,-5.1557 19.779,-6.4552 27.949,-2.9025 8.17,3.5527 8.903,10.6123 1.637,15.768 z m -30.377,63.2282 c -7.265,5.156 -19.779,6.456 -27.949,2.903 -8.17,-3.553 -8.903,-10.612 -1.637,-15.768 7.265,-5.156 19.779,-6.455 27.949,-2.903 8.17,3.553 8.903,10.613 1.637,15.768 z m -34.424,66.102 c -7.266,5.155 -19.779,6.455 -27.949,2.902 -8.171,-3.553 -8.904,-10.612 -1.638,-15.768 7.266,-5.156 19.779,-6.455 27.949,-2.902 8.17,3.552 8.903,10.612 1.638,15.768 z"
         stroke="#000000"
         stroke-width="10"
         stroke-linecap="round"
         id="path26" />
      <path
         d="m 245.499,22.7705 c -7.265,5.1557 -19.779,6.4552 -27.949,2.9025 -8.17,-3.5527 -8.903,-10.6122 -1.637,-15.76794 7.266,-5.15571 19.779,-6.45521 27.949,-2.90251 8.17,3.55265 8.903,10.61225 1.637,15.76795 z"
         fill="#000000"
         id="path28" />
      <path
         d="m 144.57,55.32 c -7.266,5.1557 -19.779,6.4552 -27.949,2.9025 -8.17,-3.5527 -8.903,-10.6122 -1.638,-15.7679 7.266,-5.1557 19.779,-6.4552 27.949,-2.9025 8.171,3.5527 8.904,10.6122 1.638,15.7679 z"
         fill="#000000"
         id="path30" />
      <path
         d="m 215.123,85.9992 c -7.266,5.1557 -19.779,6.4552 -27.949,2.9025 -8.171,-3.5527 -8.904,-10.6123 -1.638,-15.768 7.266,-5.1557 19.779,-6.4552 27.949,-2.9025 8.17,3.5527 8.903,10.6123 1.638,15.768 z"
         fill="#000000"
         id="path32" />
      <path
         d="m 180.698,152.1 c -7.266,5.156 -19.779,6.455 -27.949,2.903 -8.17,-3.553 -8.903,-10.613 -1.638,-15.768 7.266,-5.156 19.779,-6.455 27.949,-2.903 8.171,3.553 8.904,10.613 1.638,15.768 z"
         fill="#000000"
         id="path34" />
      <path
         d="m 39.5925,90.7419 c -7.2658,5.1557 -19.779,6.4552 -27.9491,2.9025 -8.17016,-3.5527 -8.90329,-10.6122 -1.6375,-15.7679 7.2657,-5.1557 19.779,-6.4552 27.9491,-2.9025 8.1701,3.5526 8.9032,10.6122 1.6375,15.7679 z"
         fill="#000000"
         id="path36" />
      <path
         d="m 110.145,121.421 c -7.266,5.156 -19.7788,6.455 -27.9489,2.903 -8.1701,-3.553 -8.9033,-10.613 -1.6375,-15.768 7.2657,-5.156 19.7794,-6.456 27.9494,-2.903 8.17,3.553 8.903,10.612 1.637,15.768 z"
         fill="#000000"
         id="path38" />
      <path
         d="m 316.052,53.4497 c -7.266,5.1557 -19.779,6.4552 -27.949,2.9025 -8.17,-3.5527 -8.903,-10.6123 -1.637,-15.768 7.265,-5.1557 19.779,-6.4552 27.949,-2.9025 8.17,3.5527 8.903,10.6123 1.637,15.768 z"
         fill="#000000"
         id="path40" />
      <path
         d="m 215.123,85.9992 c -7.266,5.1557 -19.779,6.4552 -27.949,2.9025 -8.171,-3.5527 -8.904,-10.6123 -1.638,-15.768 7.266,-5.1557 19.779,-6.4552 27.949,-2.9025 8.17,3.5527 8.903,10.6123 1.638,15.768 z"
         fill="#000000"
         id="path42" />
      <path
         d="m 285.675,116.678 c -7.265,5.156 -19.779,6.456 -27.949,2.903 -8.17,-3.553 -8.903,-10.612 -1.637,-15.768 7.265,-5.1558 19.779,-6.4553 27.949,-2.903 8.17,3.553 8.903,10.613 1.637,15.768 z"
         fill="#000000"
         id="path44" />
      <path
         d="m 251.251,182.779 c -7.266,5.156 -19.779,6.456 -27.949,2.903 -8.171,-3.553 -8.904,-10.612 -1.638,-15.768 7.266,-5.156 19.779,-6.455 27.949,-2.903 8.17,3.553 8.903,10.613 1.638,15.768 z"
         fill="#000000"
         id="path46" />
      <path
         d="m 110.145,121.421 c -7.266,5.156 -19.7788,6.455 -27.9489,2.903 -8.1701,-3.553 -8.9033,-10.613 -1.6375,-15.768 7.2657,-5.156 19.7794,-6.456 27.9494,-2.903 8.17,3.553 8.903,10.612 1.637,15.768 z"
         fill="#000000"
         id="path48" />
      <path
         d="m 180.698,152.1 c -7.266,5.156 -19.779,6.455 -27.949,2.903 -8.17,-3.553 -8.903,-10.613 -1.638,-15.768 7.266,-5.156 19.779,-6.455 27.949,-2.903 8.171,3.553 8.904,10.613 1.638,15.768 z"
         fill="#000000"
         id="path50" />
      <path
         d="m 145.642,41.0352 65.9,-20.5198 m 16.111,7.1552 -21.071,40.7769 M 42.7624,74.2965 110.485,52.7782 m 17.898,7.4306 -24.818,43.9602 m 6.92,2.496 70.706,-22.8649 m 15.44,7.0815 -22.336,44.0004 m 43.602,-61.7483 64.355,-21.6244 m 16.131,6.8431 -21.095,40.7929 m -96.097,38.2927 70.729,-22.616 m 15.441,6.745 -23.078,43.89 m 1.216,-142.6865 c -7.265,5.1557 -19.779,6.4552 -27.949,2.9025 -8.17,-3.5527 -8.903,-10.6122 -1.637,-15.76794 7.266,-5.15571 19.779,-6.45521 27.949,-2.90251 8.17,3.55265 8.903,10.61225 1.637,15.76795 z M 144.57,55.32 c -7.266,5.1557 -19.779,6.4552 -27.949,2.9025 -8.17,-3.5527 -8.903,-10.6122 -1.638,-15.7679 7.266,-5.1557 19.779,-6.4552 27.949,-2.9025 8.171,3.5527 8.904,10.6122 1.638,15.7679 z m 70.553,30.6792 c -7.266,5.1557 -19.779,6.4552 -27.949,2.9025 -8.171,-3.5527 -8.904,-10.6123 -1.638,-15.768 7.266,-5.1557 19.779,-6.4552 27.949,-2.9025 8.17,3.5527 8.903,10.6123 1.638,15.768 z M 180.698,152.1 c -7.266,5.156 -19.779,6.455 -27.949,2.903 -8.17,-3.553 -8.903,-10.613 -1.638,-15.768 7.266,-5.156 19.779,-6.455 27.949,-2.903 8.171,3.553 8.904,10.613 1.638,15.768 z M 39.5925,90.7419 c -7.2658,5.1557 -19.779,6.4552 -27.9491,2.9025 -8.17016,-3.5527 -8.90329,-10.6122 -1.6375,-15.7679 7.2657,-5.1557 19.779,-6.4552 27.9491,-2.9025 8.1701,3.5526 8.9032,10.6122 1.6375,15.7679 z m 70.5525,30.6791 c -7.266,5.156 -19.7788,6.455 -27.9489,2.903 -8.1701,-3.553 -8.9033,-10.613 -1.6375,-15.768 7.2657,-5.156 19.7794,-6.456 27.9494,-2.903 8.17,3.553 8.903,10.612 1.637,15.768 z M 316.052,53.4497 c -7.266,5.1557 -19.779,6.4552 -27.949,2.9025 -8.17,-3.5527 -8.903,-10.6123 -1.637,-15.768 7.265,-5.1557 19.779,-6.4552 27.949,-2.9025 8.17,3.5527 8.903,10.6123 1.637,15.768 z m -30.377,63.2283 c -7.265,5.156 -19.779,6.456 -27.949,2.903 -8.17,-3.553 -8.903,-10.612 -1.637,-15.768 7.265,-5.1558 19.779,-6.4553 27.949,-2.903 8.17,3.553 8.903,10.613 1.637,15.768 z m -34.424,66.101 c -7.266,5.156 -19.779,6.456 -27.949,2.903 -8.171,-3.553 -8.904,-10.612 -1.638,-15.768 7.266,-5.156 19.779,-6.455 27.949,-2.903 8.17,3.553 8.903,10.613 1.638,15.768 z"
         stroke="#ffffff"
         stroke-width="10"
         stroke-linecap="round"
         id="path52" />
    </g>
  </g>
</svg>
