<svg width="1349" height="1015" viewBox="0 0 1349 1015" fill="none" xmlns="http://www.w3.org/2000/svg">
<g clip-path="url(#clip0_276_753)">
<path d="M156.058 1012.75C156.058 1013.79 156.633 1014.64 157.347 1014.64H800.247C800.967 1014.64 801.536 1013.8 801.536 1012.75C801.536 1011.7 800.967 1010.86 800.247 1010.86H157.347C156.633 1010.86 156.058 1011.7 156.058 1012.75Z" fill="#E6E6E6"/>
<path d="M389.593 1006.52H366.639V1010.57H389.593V1006.52Z" fill="#B6B3C5"/>
<path d="M592.798 1007.19H569.844V1011.24H592.798V1007.19Z" fill="#B6B3C5"/>
<path d="M512.635 826.26C511.358 833.993 507.376 841.021 501.4 846.091C495.423 851.162 487.84 853.945 480.003 853.945C472.165 853.945 464.582 851.162 458.606 846.091C452.63 841.021 448.648 833.993 447.371 826.26H363.881V1007.19H596.122V826.26H512.635Z" fill="#D6D6E3"/>
<path d="M596.793 992.854H364.557V999.152H596.793V992.854Z" fill="#090814"/>
<path d="M947.053 830.99H12.947C9.51412 830.987 6.22285 829.621 3.79554 827.194C1.36822 824.766 0.00317686 821.475 0 818.042L0 284.948C0.00317686 281.515 1.36822 278.224 3.79554 275.796C6.22285 273.369 9.51412 272.003 12.947 272H947.053C950.486 272.003 953.777 273.369 956.204 275.796C958.632 278.224 959.997 281.515 960 284.948V818.042C959.997 821.475 958.632 824.766 956.204 827.194C953.777 829.621 950.486 830.987 947.053 830.99Z" fill="#090814"/>
<path d="M935.844 292.493H21.75V808.275H935.844V292.493Z" fill="white"/>
<path d="M799.5 383.5H160.5C160.235 383.5 159.98 383.395 159.793 383.207C159.605 383.02 159.5 382.765 159.5 382.5C159.5 382.235 159.605 381.98 159.793 381.793C159.98 381.605 160.235 381.5 160.5 381.5H799.5C799.765 381.5 800.02 381.605 800.207 381.793C800.395 381.98 800.5 382.235 800.5 382.5C800.5 382.765 800.395 383.02 800.207 383.207C800.02 383.395 799.765 383.5 799.5 383.5Z" fill="#090814"/>
<path d="M799.5 425.5H160.5C160.235 425.5 159.98 425.395 159.793 425.207C159.605 425.02 159.5 424.765 159.5 424.5C159.5 424.235 159.605 423.98 159.793 423.793C159.98 423.605 160.235 423.5 160.5 423.5H799.5C799.765 423.5 800.02 423.605 800.207 423.793C800.395 423.98 800.5 424.235 800.5 424.5C800.5 424.765 800.395 425.02 800.207 425.207C800.02 425.395 799.765 425.5 799.5 425.5Z" fill="#D6D6E3"/>
<path d="M799.5 467.5H160.5C160.235 467.5 159.98 467.395 159.793 467.207C159.605 467.02 159.5 466.765 159.5 466.5C159.5 466.235 159.605 465.98 159.793 465.793C159.98 465.605 160.235 465.5 160.5 465.5H799.5C799.765 465.5 800.02 465.605 800.207 465.793C800.395 465.98 800.5 466.235 800.5 466.5C800.5 466.765 800.395 467.02 800.207 467.207C800.02 467.395 799.765 467.5 799.5 467.5Z" fill="#D6D6E3"/>
<path d="M799.5 509.5H160.5C160.235 509.5 159.98 509.395 159.793 509.207C159.605 509.02 159.5 508.765 159.5 508.5C159.5 508.235 159.605 507.98 159.793 507.793C159.98 507.605 160.235 507.5 160.5 507.5H799.5C799.765 507.5 800.02 507.605 800.207 507.793C800.395 507.98 800.5 508.235 800.5 508.5C800.5 508.765 800.395 509.02 800.207 509.207C800.02 509.395 799.765 509.5 799.5 509.5Z" fill="#D6D6E3"/>
<path d="M210 350H168C163.582 350 160 353.582 160 358V362C160 366.418 163.582 370 168 370H210C214.418 370 218 366.418 218 362V358C218 353.582 214.418 350 210 350Z" fill="#D6D6E3"/>
<path d="M411 350H283C278.582 350 275 353.582 275 358V362C275 366.418 278.582 370 283 370H411C415.418 370 419 366.418 419 362V358C419 353.582 415.418 350 411 350Z" fill="#D6D6E3"/>
<path d="M617 350H585C580.582 350 577 353.582 577 358V362C577 366.418 580.582 370 585 370H617C621.418 370 625 366.418 625 362V358C625 353.582 621.418 350 617 350Z" fill="#D6D6E3"/>
<path d="M705 350H673C668.582 350 665 353.582 665 358V362C665 366.418 668.582 370 673 370H705C709.418 370 713 366.418 713 362V358C713 353.582 709.418 350 705 350Z" fill="#D6D6E3"/>
<path d="M793 350H761C756.582 350 753 353.582 753 358V362C753 366.418 756.582 370 761 370H793C797.418 370 801 366.418 801 362V358C801 353.582 797.418 350 793 350Z" fill="#D6D6E3"/>
<path d="M203 403H176C172.686 403 170 405.686 170 409C170 412.314 172.686 415 176 415H203C206.314 415 209 412.314 209 409C209 405.686 206.314 403 203 403Z" fill="#D6D6E3"/>
<path d="M401 403H293C289.686 403 287 405.686 287 409C287 412.314 289.686 415 293 415H401C404.314 415 407 412.314 407 409C407 405.686 404.314 403 401 403Z" fill="#6C63FF"/>
<path d="M611 403H591C587.686 403 585 405.686 585 409C585 412.314 587.686 415 591 415H611C614.314 415 617 412.314 617 409C617 405.686 614.314 403 611 403Z" fill="#D6D6E3"/>
<path d="M699 403H679C675.686 403 673 405.686 673 409C673 412.314 675.686 415 679 415H699C702.314 415 705 412.314 705 409C705 405.686 702.314 403 699 403Z" fill="#D6D6E3"/>
<path d="M787 403H767C763.686 403 761 405.686 761 409C761 412.314 763.686 415 767 415H787C790.314 415 793 412.314 793 409C793 405.686 790.314 403 787 403Z" fill="#6C63FF"/>
<path d="M203 445H176C172.686 445 170 447.686 170 451C170 454.314 172.686 457 176 457H203C206.314 457 209 454.314 209 451C209 447.686 206.314 445 203 445Z" fill="#D6D6E3"/>
<path d="M401 445H293C289.686 445 287 447.686 287 451C287 454.314 289.686 457 293 457H401C404.314 457 407 454.314 407 451C407 447.686 404.314 445 401 445Z" fill="#6C63FF"/>
<path d="M611 445H591C587.686 445 585 447.686 585 451C585 454.314 587.686 457 591 457H611C614.314 457 617 454.314 617 451C617 447.686 614.314 445 611 445Z" fill="#D6D6E3"/>
<path d="M699 445H679C675.686 445 673 447.686 673 451C673 454.314 675.686 457 679 457H699C702.314 457 705 454.314 705 451C705 447.686 702.314 445 699 445Z" fill="#D6D6E3"/>
<path d="M787 445H767C763.686 445 761 447.686 761 451C761 454.314 763.686 457 767 457H787C790.314 457 793 454.314 793 451C793 447.686 790.314 445 787 445Z" fill="#6C63FF"/>
<path opacity="0.872" d="M203 487H176C172.686 487 170 489.686 170 493C170 496.314 172.686 499 176 499H203C206.314 499 209 496.314 209 493C209 489.686 206.314 487 203 487Z" fill="#D6D6E3"/>
<path opacity="0.872" d="M401 487H293C289.686 487 287 489.686 287 493C287 496.314 289.686 499 293 499H401C404.314 499 407 496.314 407 493C407 489.686 404.314 487 401 487Z" fill="#6C63FF"/>
<path opacity="0.872" d="M611 487H591C587.686 487 585 489.686 585 493C585 496.314 587.686 499 591 499H611C614.314 499 617 496.314 617 493C617 489.686 614.314 487 611 487Z" fill="#D6D6E3"/>
<path opacity="0.872" d="M699 487H679C675.686 487 673 489.686 673 493C673 496.314 675.686 499 679 499H699C702.314 499 705 496.314 705 493C705 489.686 702.314 487 699 487Z" fill="#D6D6E3"/>
<path opacity="0.872" d="M787 487H767C763.686 487 761 489.686 761 493C761 496.314 763.686 499 767 499H787C790.314 499 793 496.314 793 493C793 489.686 790.314 487 787 487Z" fill="#6C63FF"/>
<path d="M799.5 551.5H160.5C160.235 551.5 159.98 551.395 159.793 551.207C159.605 551.02 159.5 550.765 159.5 550.5C159.5 550.235 159.605 549.98 159.793 549.793C159.98 549.605 160.235 549.5 160.5 549.5H799.5C799.765 549.5 800.02 549.605 800.207 549.793C800.395 549.98 800.5 550.235 800.5 550.5C800.5 550.765 800.395 551.02 800.207 551.207C800.02 551.395 799.765 551.5 799.5 551.5Z" fill="#D6D6E3"/>
<path d="M799.5 593.5H160.5C160.235 593.5 159.98 593.395 159.793 593.207C159.605 593.02 159.5 592.765 159.5 592.5C159.5 592.235 159.605 591.98 159.793 591.793C159.98 591.605 160.235 591.5 160.5 591.5H799.5C799.765 591.5 800.02 591.605 800.207 591.793C800.395 591.98 800.5 592.235 800.5 592.5C800.5 592.765 800.395 593.02 800.207 593.207C800.02 593.395 799.765 593.5 799.5 593.5Z" fill="#D6D6E3"/>
<path d="M799.5 635.5H160.5C160.235 635.5 159.98 635.395 159.793 635.207C159.605 635.02 159.5 634.765 159.5 634.5C159.5 634.235 159.605 633.98 159.793 633.793C159.98 633.605 160.235 633.5 160.5 633.5H799.5C799.765 633.5 800.02 633.605 800.207 633.793C800.395 633.98 800.5 634.235 800.5 634.5C800.5 634.765 800.395 635.02 800.207 635.207C800.02 635.395 799.765 635.5 799.5 635.5Z" fill="#D6D6E3"/>
<path d="M203 529H176C172.686 529 170 531.686 170 535C170 538.314 172.686 541 176 541H203C206.314 541 209 538.314 209 535C209 531.686 206.314 529 203 529Z" fill="#D6D6E3"/>
<path d="M401 529H293C289.686 529 287 531.686 287 535C287 538.314 289.686 541 293 541H401C404.314 541 407 538.314 407 535C407 531.686 404.314 529 401 529Z" fill="#6C63FF"/>
<path d="M611 529H591C587.686 529 585 531.686 585 535C585 538.314 587.686 541 591 541H611C614.314 541 617 538.314 617 535C617 531.686 614.314 529 611 529Z" fill="#D6D6E3"/>
<path d="M699 529H679C675.686 529 673 531.686 673 535C673 538.314 675.686 541 679 541H699C702.314 541 705 538.314 705 535C705 531.686 702.314 529 699 529Z" fill="#D6D6E3"/>
<path d="M787 529H767C763.686 529 761 531.686 761 535C761 538.314 763.686 541 767 541H787C790.314 541 793 538.314 793 535C793 531.686 790.314 529 787 529Z" fill="#6C63FF"/>
<path d="M203 571H176C172.686 571 170 573.686 170 577C170 580.314 172.686 583 176 583H203C206.314 583 209 580.314 209 577C209 573.686 206.314 571 203 571Z" fill="#D6D6E3"/>
<path d="M401 571H293C289.686 571 287 573.686 287 577C287 580.314 289.686 583 293 583H401C404.314 583 407 580.314 407 577C407 573.686 404.314 571 401 571Z" fill="#6C63FF"/>
<path d="M611 571H591C587.686 571 585 573.686 585 577C585 580.314 587.686 583 591 583H611C614.314 583 617 580.314 617 577C617 573.686 614.314 571 611 571Z" fill="#D6D6E3"/>
<path d="M699 571H679C675.686 571 673 573.686 673 577C673 580.314 675.686 583 679 583H699C702.314 583 705 580.314 705 577C705 573.686 702.314 571 699 571Z" fill="#D6D6E3"/>
<path d="M787 571H767C763.686 571 761 573.686 761 577C761 580.314 763.686 583 767 583H787C790.314 583 793 580.314 793 577C793 573.686 790.314 571 787 571Z" fill="#6C63FF"/>
<path opacity="0.872" d="M203 613H176C172.686 613 170 615.686 170 619C170 622.314 172.686 625 176 625H203C206.314 625 209 622.314 209 619C209 615.686 206.314 613 203 613Z" fill="#D6D6E3"/>
<path opacity="0.872" d="M401 613H293C289.686 613 287 615.686 287 619C287 622.314 289.686 625 293 625H401C404.314 625 407 622.314 407 619C407 615.686 404.314 613 401 613Z" fill="#6C63FF"/>
<path opacity="0.872" d="M611 613H591C587.686 613 585 615.686 585 619C585 622.314 587.686 625 591 625H611C614.314 625 617 622.314 617 619C617 615.686 614.314 613 611 613Z" fill="#D6D6E3"/>
<path opacity="0.872" d="M699 613H679C675.686 613 673 615.686 673 619C673 622.314 675.686 625 679 625H699C702.314 625 705 622.314 705 619C705 615.686 702.314 613 699 613Z" fill="#D6D6E3"/>
<path opacity="0.872" d="M787 613H767C763.686 613 761 615.686 761 619C761 622.314 763.686 625 767 625H787C790.314 625 793 622.314 793 619C793 615.686 790.314 613 787 613Z" fill="#6C63FF"/>
</g>
<path d="M1218.33 255.002C1208.84 250.912 1198.76 248.364 1188.47 247.453C1187.76 247.385 1187.06 247.341 1186.34 247.303C1182.24 247.025 1178.12 247.021 1174.02 247.292C1159.28 248.115 1145.05 252.894 1132.81 261.127C1132.57 261.291 1132.36 261.444 1132.13 261.595C1123.81 253.176 1113.67 246.772 1102.49 242.875C1080.02 235.218 1048.9 233.051 1096.8 246.294C1108.62 249.667 1119.38 255.994 1128.08 264.679C1123.55 268.367 1119.49 272.59 1115.98 277.256C1105.37 291.85 1099.66 309.433 1099.68 327.475L1099.7 329.148C1099.73 329.735 1099.74 330.314 1099.78 330.887C1100.12 342.332 1103.63 353.457 1109.94 363.017C1112 365.997 1114.38 368.748 1117.03 371.226C1119.52 373.538 1122.24 375.593 1125.14 377.359C1126.46 378.17 1127.86 378.944 1129.3 379.669C1130.86 380.447 1132.47 381.128 1134.11 381.708C1137.36 382.873 1140.75 383.575 1144.19 383.793C1147.78 384.043 1151.39 383.59 1154.81 382.458C1155.27 382.297 1155.74 382.136 1156.19 381.945C1160.51 380.079 1164.3 377.174 1167.23 373.487C1170.16 369.8 1172.13 365.446 1172.97 360.813C1173.49 358.266 1173.78 355.678 1173.84 353.08C1173.87 352.247 1173.87 351.415 1173.84 350.583C1173.83 349.765 1173.79 348.933 1173.73 348.098C1173.09 340.632 1171.49 333.281 1168.97 326.225C1164.91 314.476 1159.93 303.068 1154.06 292.111C1153.21 290.516 1152.34 288.925 1151.45 287.338C1146.98 279.385 1141.65 271.953 1135.54 265.182C1146.84 257.525 1159.98 253.038 1173.61 252.188C1178.27 251.83 1182.95 251.866 1187.61 252.297C1188.29 252.335 1188.97 252.409 1189.66 252.484C1191.11 252.636 1192.56 252.832 1194 253.065C1202.6 254.432 1210.95 257.028 1218.81 260.772C1221.23 261.915 1223.61 263.184 1225.91 264.543C1226.55 264.908 1227.16 265.281 1227.76 265.669C1235.06 270.207 1241.66 275.792 1247.33 282.247C1248.11 283.125 1248.87 284.029 1249.6 284.945C1262.35 300.994 1270.27 320.346 1272.41 340.731C1273.6 351.266 1273.34 361.916 1271.63 372.38C1271.13 375.537 1276.03 376.482 1276.55 373.296C1281.93 340.023 1273 303.681 1250.66 278.524C1244.23 271.259 1236.7 265.045 1228.35 260.107C1228.1 259.969 1227.86 259.814 1227.61 259.69C1226.87 259.259 1226.15 258.85 1225.4 258.449C1223.1 257.203 1220.74 256.066 1218.33 255.002ZM1148.95 293.1C1154.8 303.861 1159.78 315.072 1163.84 326.627C1165.75 331.915 1167.2 337.361 1168.17 342.902C1168.3 343.728 1168.41 344.557 1168.53 345.39C1168.64 346.222 1168.7 347.046 1168.76 347.871C1169.18 352.482 1168.81 357.13 1167.68 361.62C1166.2 367.378 1162.58 372.357 1157.57 375.553C1154.27 377.623 1150.48 378.772 1146.59 378.881C1146.26 378.905 1145.93 378.911 1145.6 378.898C1142.43 378.839 1139.29 378.276 1136.3 377.232C1133.14 376.158 1130.13 374.685 1127.34 372.849C1124.99 371.324 1122.77 369.596 1120.72 367.683C1120.26 367.258 1119.83 366.823 1119.39 366.388C1116.78 363.733 1114.5 360.771 1112.6 357.567C1107.7 349.086 1104.94 339.541 1104.56 329.757C1104.53 329.185 1104.51 328.621 1104.49 328.038C1104.46 327.489 1104.44 326.951 1104.46 326.395C1104.43 322.303 1104.75 318.215 1105.42 314.177C1108.3 296.21 1117.56 279.885 1131.51 268.201C1138.34 275.743 1144.2 284.107 1148.95 293.1Z" fill="#E6E6E6"/>
<path d="M1272.19 520.818C1313.5 520.818 1346.99 487.327 1346.99 446.013C1346.99 404.7 1313.5 371.208 1272.19 371.208C1230.87 371.208 1197.38 404.7 1197.38 446.013C1197.38 487.327 1230.87 520.818 1272.19 520.818Z" fill="#F2F2F2"/>
<path d="M1277.6 522.296C1275.89 522.412 1274.18 522.479 1272.43 522.479H1272.19C1260.89 522.48 1249.73 519.979 1239.52 515.155C1229.31 510.331 1220.29 503.304 1213.11 494.579C1205.94 485.854 1200.79 475.647 1198.03 464.694C1195.27 453.74 1194.97 442.311 1197.15 431.228C1199.34 420.146 1203.95 409.684 1210.66 400.596C1217.37 391.508 1226 384.02 1235.95 378.669C1245.9 373.318 1256.91 370.237 1268.19 369.648C1279.47 369.06 1290.74 370.978 1301.19 375.264C1302.79 375.929 1304.37 376.643 1305.91 377.392C1321 384.805 1333.22 396.981 1340.69 412.036C1348.15 427.091 1350.46 444.188 1347.23 460.682C1344.01 477.176 1335.44 492.149 1322.86 503.287C1310.27 514.424 1294.37 521.105 1277.61 522.297L1277.6 522.296ZM1272.19 372.875C1262.58 372.826 1253.06 374.669 1244.17 378.299C1235.27 381.93 1227.18 387.276 1220.36 394.033C1213.53 400.791 1208.1 408.826 1204.38 417.682C1200.66 426.537 1198.72 436.038 1198.67 445.644C1198.62 455.249 1200.46 464.77 1204.09 473.663C1207.72 482.556 1213.07 490.647 1219.83 497.473C1226.58 504.3 1234.62 509.729 1243.47 513.45C1252.33 517.171 1261.83 519.112 1271.44 519.161H1272.19C1273.66 519.161 1275.13 519.112 1276.59 519.024C1292.78 518.049 1308.18 511.722 1320.38 501.039C1332.58 490.355 1340.88 475.92 1343.98 460.003C1347.08 444.086 1344.8 427.59 1337.51 413.109C1330.21 398.627 1318.31 386.981 1303.67 380.003C1302.11 379.254 1300.52 378.573 1298.92 377.942C1290.4 374.582 1281.33 372.861 1272.18 372.869L1272.19 372.875Z" fill="#090814"/>
<path d="M1309.53 460.974H1234.84C1233.73 460.974 1232.65 461.418 1231.86 462.208C1231.07 462.999 1230.63 464.07 1230.63 465.188V466.735C1230.63 467.852 1231.07 468.924 1231.86 469.714C1232.65 470.504 1233.73 470.948 1234.84 470.948H1309.53C1310.65 470.948 1311.72 470.504 1312.51 469.714C1313.3 468.924 1313.75 467.852 1313.75 466.735V465.188C1313.75 464.07 1313.3 462.999 1312.51 462.208C1311.72 461.418 1310.65 460.974 1309.53 460.974Z" fill="#6C63FF"/>
<path d="M1309.53 441.026H1234.84C1233.73 441.026 1232.65 441.47 1231.86 442.26C1231.07 443.05 1230.63 444.121 1230.63 445.239V446.786C1230.63 447.904 1231.07 448.975 1231.86 449.765C1232.65 450.556 1233.73 450.999 1234.84 450.999H1309.53C1310.65 450.999 1311.72 450.556 1312.51 449.765C1313.3 448.975 1313.75 447.904 1313.75 446.786V445.239C1313.75 444.121 1313.3 443.05 1312.51 442.26C1311.72 441.47 1310.65 441.026 1309.53 441.026Z" fill="#6C63FF"/>
<path d="M1309.53 421.078H1234.84C1233.73 421.078 1232.65 421.522 1231.86 422.312C1231.07 423.102 1230.63 424.174 1230.63 425.291V426.839C1230.63 427.956 1231.07 429.028 1231.86 429.818C1232.65 430.608 1233.73 431.052 1234.84 431.052H1309.53C1310.65 431.052 1311.72 430.608 1312.51 429.818C1313.3 429.028 1313.75 427.956 1313.75 426.839V425.291C1313.75 424.174 1313.3 423.102 1312.51 422.312C1311.72 421.522 1310.65 421.078 1309.53 421.078Z" fill="#6C63FF"/>
<path opacity="0.1" d="M510 374.984C510.149 375.43 527.576 377.795 529.977 383.419C529.977 383.419 512.807 375.43 510.143 375.43" fill="black"/>
<path opacity="0.1" d="M534.619 420.774C534.619 420.774 520.114 425.358 521.1 432.32C522.085 439.282 519.679 429.062 534.619 420.774Z" fill="black"/>
<path opacity="0.1" d="M527.859 456.006C527.859 456.006 533.145 448.746 538.175 450.084C543.205 451.422 527.859 456.006 527.859 456.006Z" fill="black"/>
<path d="M761.635 431.449C744.627 407.25 738.682 373.605 753.007 347.729C765.116 377.526 787.374 402.079 815.843 417.046C826.844 422.777 839.676 428.007 844.554 439.412C847.589 446.51 846.777 454.781 844.019 461.99C841.262 469.198 836.719 475.563 832.225 481.838L831.951 483.746C804.92 471.753 778.644 455.647 761.635 431.449Z" fill="#E6E6E6"/>
<path d="M753.586 347.952C753.776 372.434 761.676 396.234 776.163 415.97C779.206 420.274 782.909 424.072 787.134 427.223C791.35 430.16 796.275 431.914 801.397 432.304C806.166 432.764 811.098 432.68 815.672 434.292C818.001 435.151 820.122 436.493 821.897 438.23C823.671 439.966 825.058 442.058 825.967 444.368C828.382 450.066 828.605 456.292 828.613 462.388C828.622 469.155 828.523 476.186 831.562 482.413C831.93 483.167 830.741 483.695 830.37 482.941C825.082 472.108 828.992 459.68 825.959 448.36C824.544 443.074 821.527 438.183 816.34 435.953C811.804 434.002 806.718 434.083 801.885 433.66C796.882 433.353 792.03 431.826 787.754 429.211C783.384 426.285 779.543 422.636 776.397 418.421C769.158 409.044 763.438 398.587 759.447 387.434C754.822 374.73 752.404 361.328 752.298 347.808C752.284 346.971 753.575 347.122 753.586 347.952Z" fill="white"/>
<path d="M756.54 374.836C758.108 374.363 759.535 373.508 760.691 372.347C761.848 371.187 762.698 369.757 763.165 368.187C763.402 367.381 764.617 367.856 764.382 368.656C763.857 370.389 762.916 371.966 761.641 373.251C760.366 374.536 758.796 375.489 757.068 376.027C756.909 376.092 756.732 376.094 756.572 376.032C756.412 375.971 756.282 375.851 756.207 375.696C756.138 375.538 756.134 375.359 756.196 375.198C756.259 375.036 756.382 374.906 756.54 374.836Z" fill="white"/>
<path d="M851.436 329.265C851.299 329.773 851.162 330.28 851.042 330.796C849.278 337.628 848.071 344.591 847.435 351.618C847.377 352.165 847.327 352.712 847.284 353.26C845.931 370.205 847.736 387.255 852.607 403.542C854.551 410.021 856.986 416.343 859.889 422.453C863.9 430.892 868.92 439.72 869.878 448.725C869.989 449.663 870.041 450.607 870.035 451.552L834.311 483.935C834.194 483.968 834.081 484.009 833.964 484.041L832.595 485.4C832.424 485.095 832.252 484.776 832.081 484.471C831.981 484.295 831.888 484.111 831.788 483.935C831.724 483.814 831.659 483.695 831.595 483.59C831.573 483.55 831.553 483.51 831.538 483.478C831.473 483.374 831.424 483.27 831.365 483.173C830.401 481.388 829.448 479.594 828.505 477.791C828.499 477.783 828.499 477.783 828.499 477.768C821.187 464.091 815.524 449.595 811.627 434.583C811.516 434.133 811.399 433.676 811.306 433.215C809.69 426.471 808.627 419.607 808.13 412.69C807.869 408.902 807.801 405.103 807.924 401.308C808.263 391.503 810.142 381.813 813.492 372.591C820.174 354.209 832.66 338.17 850.1 329.889C850.544 329.674 850.982 329.469 851.436 329.265Z" fill="#E6E6E6"/>
<path d="M851.766 329.792C837.177 349.453 829.155 373.211 828.838 397.691C828.676 402.96 829.346 408.221 830.822 413.281C832.419 418.164 835.295 422.53 839.151 425.926C842.683 429.163 846.67 432.067 849.352 436.108C850.694 438.196 851.58 440.545 851.951 443C852.323 445.454 852.171 447.96 851.506 450.352C850 456.355 846.433 461.46 842.769 466.333C838.701 471.742 834.389 477.296 833.067 484.098C832.907 484.919 831.638 484.624 831.798 483.802C834.098 471.967 844.698 464.405 849.096 453.535C851.148 448.462 851.685 442.741 848.887 437.837C846.44 433.549 842.331 430.551 838.727 427.301C834.917 424.044 831.962 419.903 830.121 415.241C828.391 410.27 827.52 405.042 827.545 399.779C827.41 387.934 829.139 376.141 832.668 364.833C836.624 351.905 842.762 339.748 850.817 328.89C851.317 328.218 852.26 329.119 851.764 329.786L851.766 329.792Z" fill="white"/>
<path d="M828.475 389.802C824.375 389.192 820.626 387.143 817.897 384.023C815.168 380.903 813.637 376.914 813.577 372.769C813.579 372.602 813.645 372.442 813.762 372.322C813.878 372.202 814.037 372.131 814.204 372.125C814.371 372.118 814.534 372.176 814.66 372.286C814.786 372.396 814.865 372.551 814.88 372.717C814.928 376.577 816.355 380.292 818.902 383.192C821.45 386.092 824.95 387.986 828.771 388.533C829.602 388.652 829.301 389.921 828.475 389.802Z" fill="white"/>
<path d="M837.145 424.519C843.999 419.537 848.723 412.154 850.375 403.843C850.538 403.022 851.808 403.316 851.645 404.138C849.909 412.782 844.977 420.453 837.833 425.621C837.149 426.114 836.465 425.004 837.149 424.514L837.145 424.519Z" fill="white"/>
<path d="M837.941 353.031C839.479 353.598 841.133 353.775 842.755 353.544C844.377 353.314 845.916 352.685 847.235 351.712C847.91 351.211 848.594 352.321 847.919 352.819C846.457 353.887 844.756 354.58 842.965 354.838C841.173 355.096 839.346 354.912 837.642 354.301C837.476 354.257 837.334 354.152 837.243 354.006C837.153 353.861 837.121 353.686 837.155 353.518C837.195 353.351 837.299 353.205 837.446 353.114C837.592 353.023 837.769 352.993 837.937 353.031H837.941Z" fill="white"/>
<path d="M1107.16 784.443C1106.68 774.121 1104.55 763.942 1100.86 754.29C1100.62 753.625 1100.35 752.976 1100.07 752.311C1098.52 748.5 1096.72 744.798 1094.68 741.227C1087.49 728.346 1076.96 717.642 1064.19 710.242C1063.95 710.105 1063.71 709.976 1063.48 709.842C1067.41 698.674 1068.73 686.756 1067.34 674.999C1064.38 651.444 1051.21 630.482 1035.32 613.377C1005.85 581.632 964.404 562.66 935.812 530.31C935.445 529.9 935.063 529.462 934.698 529.031C934.333 528.6 933.949 528.149 933.568 527.701C929.779 523.227 926.292 518.507 923.129 513.571C917.732 505.085 913.246 496.053 909.747 486.625C908.533 483.351 907.42 480.009 906.439 476.651C905.459 473.36 904.592 470.035 903.839 466.678C903.11 463.37 902.483 460.045 901.961 456.704C901.445 453.396 901.041 450.072 900.747 446.73C900.448 443.405 900.254 440.081 900.166 436.756C899.728 420.499 901.859 404.274 906.482 388.682C906.632 388.134 906.798 387.601 906.981 387.052C907.165 386.503 907.314 385.957 907.496 385.41C907.646 384.928 907.795 384.462 907.961 383.98C915.658 360.973 929.371 341.607 946.344 324.485C956.95 313.78 968.402 303.889 979.408 293.561C979.806 293.196 980.206 292.813 980.605 292.431C981.005 292.049 981.452 291.65 981.868 291.25C988.839 284.722 995.443 277.813 1001.65 270.554C1005.24 266.304 1008.59 261.853 1011.67 257.223C1013.85 253.998 1015.88 250.655 1017.74 247.249C1019.54 243.991 1021.17 240.666 1022.65 237.275C1024.06 234.017 1025.32 230.676 1026.4 227.302C1027.45 224.028 1028.33 220.698 1029.01 217.328C1029.69 214.035 1030.18 210.705 1030.46 207.354C1030.47 207.323 1030.48 207.289 1030.48 207.254C1032 190.148 1026.87 173.111 1016.15 159.696C1015.75 159.18 1015.32 158.682 1014.9 158.182C1014.47 157.683 1014.05 157.168 1013.6 156.687C1011.39 154.187 1009.01 151.855 1006.45 149.708C979.175 126.601 943.452 122.695 910.388 112.353C909.856 112.187 909.342 112.02 908.809 111.855C908.277 111.689 907.715 111.506 907.167 111.323C898.648 108.613 890.378 105.176 882.448 101.049C882.349 101 882.266 100.949 882.167 100.9C877.682 98.5047 873.401 95.747 869.366 92.6546C865.459 89.6751 861.84 86.336 858.556 82.6809C857.709 81.7504 856.894 80.8031 856.112 79.8389C854.268 77.5948 851.208 80.3041 852.189 82.6809C852.284 82.9335 852.418 83.1692 852.588 83.3787C855.291 86.6997 858.254 89.8014 861.447 92.6546C865.627 96.3987 870.152 99.7382 874.962 102.628C884.329 108.126 894.303 112.516 904.684 115.711C905.231 115.894 905.778 116.06 906.326 116.243C906.873 116.426 907.39 116.576 907.939 116.741C927.97 122.975 949.18 126.948 968.164 134.03C982.532 139.383 996.989 146.796 1007.88 157.784C1008.33 158.249 1008.77 158.714 1009.21 159.18C1009.64 159.645 1010.09 160.128 1010.52 160.61C1013.16 163.59 1015.51 166.812 1017.53 170.234C1023.99 181.474 1026.72 194.467 1025.35 207.354C1025.06 210.707 1024.56 214.038 1023.85 217.328C1023.13 220.704 1022.21 224.034 1021.09 227.302C1020.09 230.312 1018.93 233.253 1017.65 236.145C1017.49 236.527 1017.3 236.91 1017.14 237.275C1015.56 240.716 1013.83 244.041 1011.95 247.249C1009.96 250.69 1007.81 253.998 1005.52 257.223C997.323 268.381 988.077 278.729 977.908 288.125C977.498 288.523 977.078 288.923 976.662 289.305C976.246 289.686 975.864 290.053 975.481 290.435C957.411 307.457 938.028 323.465 923.348 343.379C914.065 356.063 906.959 370.203 902.319 385.22C902.152 385.767 901.97 386.315 901.821 386.882C901.638 387.43 901.472 387.977 901.322 388.545C896.837 404.208 894.779 420.466 895.222 436.752C895.305 440.077 895.489 443.401 895.787 446.726C896.085 450.051 896.457 453.392 896.95 456.7C897.183 458.342 897.449 459.974 897.748 461.604C898.047 463.299 898.38 464.995 898.762 466.673C899.461 470.031 900.291 473.356 901.225 476.647C902.172 480.005 903.252 483.33 904.432 486.621C908.496 498.05 913.969 508.928 920.723 519.004C923.251 522.743 925.942 526.317 928.796 529.759C929.178 530.207 929.561 530.673 929.943 531.127C930.325 531.581 930.691 532.008 931.073 532.44C942.41 545.507 955.925 556.611 969.821 567C1006.46 594.379 1052.67 622.521 1061.75 671.377C1063.89 683.479 1062.92 695.927 1058.92 707.549C1053.62 705.094 1048.05 703.291 1042.32 702.18C1024.55 699.035 1006.25 701.608 990.036 709.528L988.54 710.276C988.024 710.558 987.51 710.823 987.01 711.107C976.869 716.424 968.407 724.46 962.573 734.313C960.8 737.477 959.368 740.821 958.301 744.287C957.314 747.537 956.656 750.879 956.339 754.261C956.19 755.807 956.107 757.408 956.09 759.016C956.071 760.76 956.161 762.503 956.357 764.236C956.731 767.663 957.587 771.021 958.899 774.209C960.248 777.548 962.235 780.592 964.75 783.169C965.099 783.518 965.448 783.867 965.815 784.183C969.385 787.253 973.659 789.392 978.256 790.41C982.853 791.428 987.631 791.293 992.163 790.018C994.68 789.368 997.133 788.495 999.493 787.408C1000.26 787.076 1001.01 786.711 1001.74 786.314C1002.47 785.948 1003.2 785.549 1003.93 785.133C1010.36 781.287 1016.26 776.627 1021.5 771.269C1030.28 762.478 1038.36 753.001 1045.63 742.927C1046.7 741.467 1047.75 739.988 1048.78 738.488C1053.98 730.993 1058.32 722.941 1061.73 714.484C1073.57 721.285 1083.36 731.136 1090.09 743.009C1092.46 747.043 1094.47 751.269 1096.13 755.643C1096.39 756.274 1096.62 756.922 1096.86 757.571C1097.36 758.939 1097.82 760.331 1098.24 761.726C1100.77 770.055 1102.1 778.704 1102.18 787.41C1102.21 790.086 1102.11 792.779 1101.89 795.439C1101.85 796.171 1101.78 796.885 1101.69 797.6C1100.81 806.149 1098.68 814.522 1095.36 822.451C1094.91 823.532 1094.43 824.612 1093.93 825.676C1085.09 844.167 1071.16 859.754 1053.77 870.609C1044.82 876.297 1035.13 880.727 1024.98 883.775C1021.92 884.706 1023.22 889.522 1026.31 888.596C1058.57 878.855 1087.34 854.917 1100.17 823.815C1103.88 814.851 1106.17 805.36 1106.95 795.688C1106.97 795.406 1107 795.123 1107 794.84C1107.07 793.991 1107.12 793.161 1107.15 792.312C1107.27 789.698 1107.26 787.07 1107.16 784.443ZM1042.53 738.763C1035.42 748.732 1027.52 758.115 1018.91 766.823C1014.99 770.862 1010.73 774.549 1006.17 777.844C1005.49 778.325 1004.79 778.792 1004.1 779.257C1003.4 779.723 1002.68 780.138 1001.97 780.554C998.004 782.948 993.666 784.656 989.135 785.608C983.308 786.792 977.249 785.723 972.179 782.615C968.874 780.559 966.181 777.654 964.38 774.204C964.213 773.919 964.064 773.625 963.931 773.323C962.596 770.447 961.727 767.378 961.354 764.23C960.936 760.919 960.941 757.567 961.371 754.257C961.711 751.474 962.295 748.727 963.117 746.047C963.3 745.449 963.498 744.866 963.698 744.284C964.941 740.772 966.604 737.423 968.651 734.311C974.131 726.196 981.505 719.537 990.134 714.911C990.632 714.629 991.13 714.363 991.646 714.09C992.128 713.824 992.604 713.574 993.109 713.341C996.775 711.525 1000.59 710.023 1004.51 708.853C1021.92 703.574 1040.66 704.754 1057.27 712.178C1053.48 721.617 1048.53 730.546 1042.53 738.758L1042.53 738.763Z" fill="#E6E6E6"/>
<path d="M821.461 151.274C862.775 151.274 896.266 117.782 896.266 76.4687C896.266 35.1552 862.775 1.66388 821.461 1.66388C780.148 1.66388 746.656 35.1552 746.656 76.4687C746.656 117.782 780.148 151.274 821.461 151.274Z" fill="white"/>
<path d="M821.459 7.36582e-06C808.074 -0.00586645 794.923 3.50138 783.319 10.1712C771.715 16.841 762.065 26.4397 755.333 38.0078C748.602 49.576 745.024 62.7085 744.959 76.0926C744.893 89.4767 748.342 102.644 754.96 114.277C761.577 125.911 771.133 135.604 782.671 142.387C794.209 149.17 807.325 152.806 820.709 152.931C834.093 153.057 847.275 149.667 858.938 143.101C870.601 136.535 880.336 127.023 887.171 115.515C888.035 114.086 888.85 112.623 889.615 111.127C895.545 99.4701 898.386 86.4867 897.867 73.4182C897.347 60.3498 893.483 47.6332 886.645 36.4842C879.807 25.3353 870.224 16.1268 858.811 9.73912C847.398 3.35147 834.538 -0.00177977 821.459 7.36582e-06ZM821.459 149.61C805.483 149.623 789.942 144.41 777.205 134.766C764.469 125.122 755.237 111.577 750.918 96.1959C746.599 80.8152 747.43 64.4438 753.284 49.5794C759.138 34.715 769.694 22.1737 783.341 13.8686C796.988 5.56358 812.977 1.95085 828.87 3.58156C844.762 5.21228 859.684 11.9969 871.361 22.9004C883.037 33.8039 890.826 48.2277 893.539 63.9712C896.252 79.7147 893.741 95.9136 886.388 110.097C885.623 111.592 884.793 113.055 883.912 114.485C877.389 125.205 868.218 134.067 857.281 140.218C846.343 146.37 834.007 149.604 821.459 149.61Z" fill="#090814"/>
<path d="M881.305 535.27C922.619 535.27 956.11 501.779 956.11 460.465C956.11 419.152 922.619 385.661 881.305 385.661C839.992 385.661 806.5 419.152 806.5 460.465C806.5 501.779 839.992 535.27 881.305 535.27Z" fill="white"/>
<path d="M886.72 384.183C885.008 384.066 883.299 383.999 881.55 383.999H881.301C870.005 383.998 858.849 386.499 848.635 391.324C838.421 396.148 829.403 403.175 822.228 411.9C815.054 420.625 809.902 430.831 807.142 441.785C804.382 452.738 804.084 464.167 806.267 475.25C808.451 486.333 813.063 496.794 819.772 505.882C826.481 514.97 835.12 522.459 845.068 527.81C855.016 533.161 866.026 536.242 877.307 536.83C888.588 537.419 899.858 535.501 910.31 531.215C911.905 530.55 913.484 529.835 915.03 529.087C930.113 521.673 942.333 509.498 949.802 494.442C957.27 479.387 959.571 462.291 956.349 445.797C953.126 429.302 944.56 414.329 931.975 403.192C919.389 392.054 903.485 385.373 886.721 384.181L886.72 384.183ZM881.301 533.604C861.902 533.703 843.259 526.092 829.471 512.445C822.645 505.688 817.216 497.652 813.495 488.797C809.773 479.942 807.833 470.44 807.784 460.835C807.735 451.23 809.578 441.709 813.208 432.816C816.839 423.923 822.185 415.832 828.942 409.005C842.589 395.218 861.154 387.417 880.553 387.318H881.301C882.78 387.318 884.243 387.367 885.706 387.454C901.892 388.429 917.296 394.756 929.495 405.44C941.694 416.124 949.996 430.559 953.096 446.476C956.197 462.393 953.919 478.889 946.622 493.37C939.325 507.851 927.422 519.497 912.785 526.476C911.222 527.225 909.638 527.906 908.031 528.537C899.52 531.897 890.451 533.618 881.301 533.609V533.604Z" fill="#090814"/>
<path d="M918.648 445.505H843.958C842.84 445.505 841.769 445.062 840.979 444.271C840.189 443.481 839.745 442.41 839.745 441.292V439.745C839.745 438.627 840.189 437.556 840.979 436.766C841.769 435.976 842.84 435.532 843.958 435.532H918.648C919.765 435.532 920.837 435.976 921.627 436.766C922.417 437.556 922.861 438.627 922.861 439.745V441.292C922.861 442.41 922.417 443.481 921.627 444.271C920.837 445.062 919.765 445.505 918.648 445.505Z" fill="#090814"/>
<path d="M918.648 465.454H843.958C842.84 465.454 841.769 465.01 840.979 464.22C840.189 463.43 839.745 462.359 839.745 461.241V459.694C839.745 458.576 840.189 457.505 840.979 456.715C841.769 455.925 842.84 455.481 843.958 455.481H918.648C919.765 455.481 920.837 455.925 921.627 456.715C922.417 457.505 922.861 458.576 922.861 459.694V461.241C922.861 462.359 922.417 463.43 921.627 464.22C920.837 465.01 919.765 465.454 918.648 465.454Z" fill="#090814"/>
<path d="M918.648 485.402H843.958C842.84 485.402 841.769 484.958 840.979 484.168C840.189 483.378 839.745 482.306 839.745 481.189V479.641C839.745 478.524 840.189 477.452 840.979 476.662C841.769 475.872 842.84 475.428 843.958 475.428H918.648C919.765 475.428 920.837 475.872 921.627 476.662C922.417 477.452 922.861 478.524 922.861 479.641V481.189C922.861 482.306 922.417 483.378 921.627 484.168C920.837 484.958 919.765 485.402 918.648 485.402Z" fill="#090814"/>
<path d="M911.227 832.827C952.541 832.827 986.032 799.336 986.032 758.022C986.032 716.709 952.541 683.218 911.227 683.218C869.914 683.218 836.423 716.709 836.423 758.022C836.423 799.336 869.914 832.827 911.227 832.827Z" fill="white"/>
<path d="M972.334 712.126C971.353 710.812 970.339 709.549 969.276 708.303C958.339 695.543 943.501 686.743 927.059 683.265C910.617 679.787 893.487 681.825 878.32 689.062C863.152 696.3 850.793 708.334 843.153 723.303C835.514 738.272 833.021 755.342 836.059 771.871C839.098 788.4 847.499 803.467 859.962 814.74C872.426 826.014 888.257 832.866 905.007 834.236C921.757 835.606 938.492 831.418 952.622 822.32C966.752 813.222 977.49 799.721 983.174 783.905C984.044 781.519 984.787 779.089 985.402 776.625C988.172 765.58 988.436 754.055 986.175 742.895C983.914 731.734 979.185 721.222 972.334 712.126ZM911.228 831.17C898.99 831.177 886.946 828.114 876.199 822.261C865.453 816.407 856.346 807.951 849.714 797.666C843.082 787.382 839.137 775.597 838.239 763.393C837.341 751.188 839.52 738.953 844.576 727.809C849.632 716.665 857.403 706.967 867.178 699.605C876.953 692.242 888.419 687.449 900.526 685.666C912.633 683.883 924.994 685.166 936.476 689.397C947.959 693.629 958.196 700.674 966.251 709.887C967.33 711.119 968.362 712.38 969.359 713.694C976.405 722.909 981.153 733.67 983.211 745.086C985.269 756.502 984.578 768.244 981.194 779.339C980.493 781.663 979.671 783.949 978.731 786.188C973.16 799.5 963.782 810.87 951.772 818.871C939.763 826.873 925.658 831.15 911.228 831.165V831.17Z" fill="#090814"/>
<path d="M1004.31 305.869C1045.63 305.869 1079.12 272.378 1079.12 231.065C1079.12 189.751 1045.63 156.26 1004.31 156.26C963.001 156.26 929.51 189.751 929.51 231.065C929.51 272.378 963.001 305.869 1004.31 305.869Z" fill="#6C63FF"/>
<path d="M1004.31 154.596C1000.47 154.596 996.636 154.885 992.837 155.459C990.883 155.744 988.989 156.109 987.109 156.554C973.308 159.734 960.661 166.687 950.581 176.636C940.501 186.585 933.384 199.139 930.024 212.898C926.663 226.656 927.192 241.078 931.551 254.554C935.91 268.029 943.927 280.029 954.709 289.213C955.988 290.294 957.285 291.341 958.632 292.338C968.337 299.574 979.621 304.401 991.556 306.423C1003.49 308.446 1015.74 307.605 1027.28 303.97C1038.83 300.336 1049.35 294.011 1057.97 285.517C1066.6 277.023 1073.08 266.603 1076.89 255.113C1080.7 243.623 1081.73 231.393 1079.89 219.428C1078.05 207.464 1073.4 196.107 1066.31 186.293C1059.22 176.479 1049.91 168.487 1039.13 162.977C1028.35 157.466 1016.42 154.594 1004.31 154.596ZM1004.31 304.206C988.762 304.222 973.614 299.252 961.095 290.026C959.726 289.028 958.418 287.998 957.139 286.9C946.637 278.04 938.845 266.4 934.656 253.314C930.467 240.228 930.051 226.226 933.455 212.915C936.86 199.603 943.947 187.52 953.905 178.052C963.862 168.585 976.287 162.115 989.753 159.385C991.614 159.003 993.476 158.701 995.371 158.471C998.338 158.104 1001.33 157.921 1004.31 157.924C1023.71 157.924 1042.32 165.63 1056.03 179.347C1069.75 193.063 1077.46 211.667 1077.46 231.066C1077.46 250.465 1069.75 269.069 1056.03 282.785C1042.32 296.502 1023.71 304.208 1004.31 304.208V304.206Z" fill="#6C63FF"/>
<path d="M1041.66 216.103H966.969C965.851 216.103 964.78 215.659 963.99 214.869C963.2 214.079 962.756 213.008 962.756 211.89V210.343C962.756 209.225 963.2 208.154 963.99 207.364C964.78 206.574 965.851 206.13 966.969 206.13H1041.66C1042.78 206.13 1043.85 206.574 1044.64 207.364C1045.43 208.154 1045.87 209.225 1045.87 210.343V211.89C1045.87 213.008 1045.43 214.079 1044.64 214.869C1043.85 215.659 1042.78 216.103 1041.66 216.103Z" fill="white"/>
<path d="M1041.66 236.052H966.969C965.851 236.052 964.78 235.608 963.99 234.818C963.2 234.028 962.756 232.956 962.756 231.839V230.292C962.756 229.174 963.2 228.103 963.99 227.312C964.78 226.522 965.851 226.078 966.969 226.078H1041.66C1042.78 226.078 1043.85 226.522 1044.64 227.312C1045.43 228.103 1045.87 229.174 1045.87 230.292V231.839C1045.87 232.956 1045.43 234.028 1044.64 234.818C1043.85 235.608 1042.78 236.052 1041.66 236.052Z" fill="white"/>
<path d="M1041.66 256H966.969C965.851 256 964.78 255.556 963.99 254.766C963.2 253.976 962.756 252.904 962.756 251.787V250.239C962.756 249.122 963.2 248.05 963.99 247.26C964.78 246.47 965.851 246.026 966.969 246.026H1041.66C1042.78 246.026 1043.85 246.47 1044.64 247.26C1045.43 248.05 1045.87 249.122 1045.87 250.239V251.787C1045.87 252.904 1045.43 253.976 1044.64 254.766C1043.85 255.556 1042.78 256 1041.66 256Z" fill="white"/>
<path d="M849.691 70.7491C849.691 72.7929 849.508 74.8326 849.144 76.8436C848.486 79.4139 847.489 81.8853 846.18 84.1929C843.673 88.6454 840.98 90.3079 838.776 94.6674C838.396 94.9616 838.006 95.2257 837.607 95.4884C836.814 96.0002 836.728 98.5083 835.883 98.9407C835.883 98.9407 835.871 98.9407 835.866 98.953C835.606 99.3945 835.457 99.892 835.43 100.403V100.416C835.005 102.907 834.637 107.974 834.211 110.972C834.154 111.335 834.102 111.669 834.044 111.962C833.901 112.755 833.751 113.262 833.585 113.33C831.532 114.124 830.656 113.036 828.405 113.33C827.197 113.491 821.032 114.481 819.777 114.481C816.219 114.481 814.29 113.267 811.407 111.967C811.206 111.88 811.004 111.789 810.791 111.693C810.713 111.665 810.654 111.631 810.573 111.602C809.752 111.252 808.963 102.404 808.186 99.0556C808.184 99.0528 808.184 99.0498 808.184 99.0467C808.184 99.0437 808.184 99.0406 808.186 99.0378C808.024 98.3414 807.864 97.8871 807.703 97.7954L807.582 97.727C807.071 97.4328 806.57 97.1113 806.077 96.7774C803.113 91.8323 797.39 87.1348 794.564 79.4585C793.753 76.6258 793.334 73.6955 793.316 70.7491C793.316 63.2734 796.286 56.1038 801.572 50.8176C806.858 45.5314 814.028 42.5617 821.504 42.5617C828.979 42.5617 836.149 45.5314 841.435 50.8176C846.721 56.1038 849.691 63.2734 849.691 70.7491Z" fill="#6C63FF"/>
<path d="M849.143 76.8464C848.485 79.4156 847.489 81.8861 846.18 84.1929C843.673 88.6454 840.98 90.308 838.776 94.6674C837.308 97.5724 836.055 101.675 835.198 108.59C835.146 109.001 835.255 109.464 835.198 109.867C835.061 110.758 835.227 110.597 834.686 111.403C834.439 111.54 834.289 111.346 834.207 110.968C834.08 110.011 834.068 109.041 834.173 108.081C834.328 105.491 834.748 102.923 835.426 100.418V100.406C835.563 99.9054 835.714 99.4224 835.862 98.9571C838.526 90.8457 843.438 87.1704 845.664 82.9245C857.352 60.6673 835.747 35.8309 811.943 44.465C810.667 44.9316 810.735 45.2012 810.667 45.2354C808.929 45.8239 807.259 46.5949 805.685 47.5355C795.138 54.711 791.353 68.9142 796.106 80.6148C798.683 86.9487 804.08 90.52 807.571 97.7188C807.78 98.1366 807.982 98.5735 808.175 99.0297C808.174 99.0325 808.173 99.0355 808.173 99.0385C808.173 99.0416 808.174 99.0446 808.175 99.0474C809.814 103.064 810.695 107.348 810.775 111.685C810.775 111.763 810.787 111.834 810.787 111.91C810.994 111.927 811.198 111.938 811.39 111.956C814.446 112.22 816.423 112.71 817.448 112.181L818.576 112.296C818.949 112.818 825.234 112.181 826.238 112.168H826.497C829.007 112.232 831.52 112.161 834.023 111.955C834.15 111.943 834.281 111.926 834.408 111.908C834.576 111.947 834.722 112.048 834.818 112.192C834.913 112.335 834.949 112.509 834.92 112.679C834.718 113.822 834.193 114.885 833.407 115.74C832.227 116.424 813.019 116.781 811.18 115.486C810.645 115.112 810.253 114.567 810.068 113.941C809.883 113.315 809.916 112.645 810.162 112.04C810.128 111.878 809.421 111.418 809.391 111.269C809.047 109.311 809.454 104.35 807.097 98.7519C806.805 98.0662 806.463 97.403 806.073 96.7678C803.111 91.8323 797.387 87.1376 794.563 79.4558C793.079 75.3321 792.558 70.9235 793.041 66.5675C794.065 55.7523 803.394 45.1122 813.863 42.4249C835.773 36.8024 854.274 56.6677 849.143 76.8464Z" fill="#010001"/>
<path d="M833.686 116.335C835.508 118.069 834.536 118.661 833.686 120.678C832.614 120.437 814.272 121.61 811.716 120.678C811.307 120.513 810.947 120.246 810.669 119.904C810.391 119.561 810.206 119.153 810.129 118.719C810.052 118.284 810.087 117.838 810.231 117.421C810.375 117.004 810.622 116.63 810.95 116.335C818.505 117.179 826.131 117.179 833.686 116.335Z" fill="#010001"/>
<path d="M834.707 121.444C835.424 123.04 834.051 124.019 833.429 125.275L832.152 125.531L811.972 125.277C810.756 125.039 809.984 123.341 809.676 122.212C809.654 122.06 809.678 121.906 809.746 121.769C809.814 121.632 809.921 121.519 810.055 121.444L811.716 120.934C818.386 121.473 825.081 121.644 831.77 121.444C832.216 121.184 832.723 121.048 833.239 121.048C833.755 121.048 834.262 121.184 834.708 121.444H834.707Z" fill="#010001"/>
<path d="M818.149 100.659H817.619V92.0074L807.866 71.3526L808.345 71.1268L818.149 91.8857V100.659Z" fill="#0F0F10"/>
<path d="M821.356 27.4486C822.438 26.7124 822.451 35.3438 822.125 35.6243C820.861 36.6861 820.993 27.6976 821.356 27.4486Z" fill="#6C63FF"/>
<path d="M812.668 28.2175C813.52 27.6688 815.479 35.8405 815.352 36.2646C814.629 38.6702 812.27 28.4734 812.668 28.2175Z" fill="#6C63FF"/>
<path d="M830.039 28.2108C831.053 27.9494 829.347 35.8953 829.146 36.2647C827.231 39.7485 829.484 28.3627 830.039 28.2108Z" fill="#6C63FF"/>
<path d="M826.394 100.674L825.959 91.0605L825.969 91.0236L831.146 69.7393L831.661 69.8652L826.491 91.1125L826.917 100.65L826.394 100.674Z" fill="#0F0F10"/>
<path d="M938.119 752.303C938.119 754.346 937.936 756.386 937.572 758.397C936.914 760.967 935.917 763.439 934.608 765.746C932.101 770.199 929.408 771.862 927.204 776.221C926.824 776.515 926.434 776.779 926.035 777.042C925.242 777.554 925.156 780.062 924.311 780.494C924.311 780.494 924.299 780.494 924.294 780.507C924.034 780.948 923.885 781.446 923.858 781.957V781.969C923.433 784.461 923.065 789.528 922.639 792.526C922.582 792.889 922.53 793.222 922.472 793.515C922.329 794.309 922.179 794.815 922.013 794.884C919.96 795.677 919.084 794.589 916.833 794.884C915.625 795.045 909.46 796.034 908.205 796.034C904.647 796.034 902.718 794.821 899.835 793.521C899.634 793.433 899.432 793.343 899.219 793.247C899.141 793.218 899.082 793.184 899.001 793.155C898.18 792.805 897.391 783.957 896.614 780.609C896.612 780.606 896.612 780.603 896.612 780.6C896.612 780.597 896.612 780.594 896.614 780.591C896.452 779.895 896.292 779.441 896.131 779.349L896.01 779.281C895.499 778.986 894.998 778.665 894.505 778.331C891.541 773.386 885.818 768.688 882.992 761.012C882.181 758.179 881.762 755.249 881.744 752.303C881.744 744.827 884.714 737.657 890 732.371C895.286 727.085 902.456 724.115 909.932 724.115C917.407 724.115 924.577 727.085 929.863 732.371C935.149 737.657 938.119 744.827 938.119 752.303Z" fill="#F2F2F2"/>
<path d="M937.57 758.4C936.913 760.969 935.916 763.44 934.608 765.746C932.101 770.199 929.408 771.861 927.204 776.221C925.736 779.126 924.482 783.228 923.626 790.144C923.574 790.554 923.683 791.018 923.626 791.42C923.489 792.311 923.655 792.151 923.114 792.957C922.866 793.094 922.717 792.899 922.635 792.522C922.508 791.564 922.496 790.595 922.601 789.635C922.756 787.044 923.176 784.477 923.854 781.972V781.96C923.991 781.459 924.142 780.976 924.29 780.511C926.954 772.399 931.866 768.724 934.092 764.478C945.78 742.221 924.175 717.384 900.371 726.018C899.095 726.485 899.163 726.755 899.095 726.789C897.357 727.377 895.687 728.148 894.113 729.089C883.566 736.264 879.781 750.468 884.534 762.168C887.111 768.502 892.508 772.074 895.999 779.272C896.208 779.69 896.41 780.127 896.603 780.583C896.602 780.586 896.601 780.589 896.601 780.592C896.601 780.595 896.602 780.598 896.603 780.601C898.242 784.617 899.123 788.902 899.203 793.239C899.203 793.317 899.215 793.388 899.215 793.463C899.422 793.481 899.626 793.492 899.818 793.51C902.874 793.774 904.851 794.264 905.876 793.734L907.004 793.849C907.377 794.372 913.662 793.734 914.666 793.722H914.925C917.435 793.786 919.948 793.714 922.451 793.508C922.578 793.496 922.709 793.48 922.836 793.462C923.004 793.501 923.15 793.602 923.245 793.745C923.341 793.888 923.377 794.063 923.348 794.232C923.146 795.376 922.621 796.438 921.835 797.293C920.655 797.977 901.447 798.334 899.608 797.04C899.073 796.666 898.681 796.121 898.496 795.495C898.311 794.868 898.344 794.198 898.59 793.593C898.556 793.432 897.849 792.972 897.819 792.823C897.475 790.865 897.882 785.903 895.525 780.305C895.233 779.62 894.891 778.956 894.501 778.321C891.539 773.386 885.815 768.691 882.991 761.009C881.507 756.886 880.986 752.477 881.469 748.121C882.493 737.306 891.822 726.666 902.291 723.978C924.201 718.356 942.702 738.221 937.57 758.4Z" fill="#010001"/>
<path d="M922.114 797.888C923.936 799.622 922.964 800.215 922.114 802.231C921.042 801.991 902.7 803.163 900.144 802.231C899.735 802.066 899.375 801.8 899.097 801.457C898.819 801.114 898.634 800.707 898.557 800.272C898.48 799.838 898.515 799.391 898.659 798.974C898.803 798.557 899.05 798.184 899.378 797.888C906.933 798.732 914.559 798.732 922.114 797.888Z" fill="#010001"/>
<path d="M923.135 802.998C923.852 804.593 922.479 805.573 921.857 806.829L920.58 807.085L900.4 806.83C899.183 806.592 898.412 804.894 898.104 803.765C898.082 803.614 898.106 803.46 898.174 803.322C898.242 803.185 898.349 803.072 898.483 802.998L900.144 802.487C906.814 803.027 913.509 803.197 920.198 802.998C920.644 802.738 921.151 802.601 921.667 802.601C922.183 802.601 922.69 802.738 923.136 802.998H923.135Z" fill="#010001"/>
<path d="M906.577 782.213H906.047V773.561L896.294 752.906L896.773 752.68L906.577 773.439V782.213Z" fill="#0F0F10"/>
<path d="M909.784 709.002C910.866 708.266 910.879 716.897 910.553 717.178C909.289 718.24 909.421 709.251 909.784 709.002Z" fill="#6C63FF"/>
<path d="M901.096 709.771C901.948 709.222 903.907 717.394 903.78 717.818C903.057 720.224 900.698 710.027 901.096 709.771Z" fill="#6C63FF"/>
<path d="M918.467 709.764C919.481 709.503 917.775 717.449 917.574 717.818C915.66 721.302 917.912 709.916 918.467 709.764Z" fill="#6C63FF"/>
<path d="M914.822 782.228L914.387 772.614L914.397 772.577L919.574 751.293L920.089 751.419L914.919 772.666L915.345 782.203L914.822 782.228Z" fill="#0F0F10"/>
<defs>
<clipPath id="clip0_276_753">
<rect width="960" height="742.636" fill="white" transform="translate(0 272)"/>
</clipPath>
</defs>
</svg>
