<svg width="2000" height="387" viewBox="0 0 2000 387" fill="none" xmlns="http://www.w3.org/2000/svg">
<path d="M1.84774e-06 381.5V28.5H56L195 245H166.5L305 28.5H361.5V381.5H283V161L297 164.5L206.5 305.5H154.5L64.5 164.5L78 161V381.5H1.84774e-06ZM542.199 387C515.866 387 492.366 381.667 471.699 371C451.366 360 435.366 344.833 423.699 325.5C412.033 306.167 406.199 284.333 406.199 260C406.199 235.667 411.866 214 423.199 195C434.866 175.667 450.533 160.5 470.199 149.5C489.866 138.5 512.033 133 536.699 133C560.699 133 581.866 138.167 600.199 148.5C618.533 158.833 632.866 173.167 643.199 191.5C653.866 209.833 659.199 230.833 659.199 254.5C659.199 258.833 658.866 263.5 658.199 268.5C657.866 273.167 657.033 278.667 655.699 285L446.199 285.5V233L623.199 232.5L590.199 254.5C589.866 240.5 587.699 229 583.699 220C579.699 210.667 573.699 203.667 565.699 199C558.033 194 548.533 191.5 537.199 191.5C525.199 191.5 514.699 194.333 505.699 200C497.033 205.333 490.199 213 485.199 223C480.533 233 478.199 245.167 478.199 259.5C478.199 273.833 480.699 286.167 485.699 296.5C491.033 306.5 498.366 314.333 507.699 320C517.366 325.333 528.699 328 541.699 328C553.699 328 564.533 326 574.199 322C583.866 317.667 592.366 311.333 599.699 303L641.699 345C629.699 359 615.199 369.5 598.199 376.5C581.199 383.5 562.533 387 542.199 387ZM500.699 111L475.699 74.5L555.199 -5.72205e-06L597.199 59L500.699 111ZM725.254 381.5V38H801.754V381.5H725.254ZM670.254 203.5V138.5H856.754V203.5H670.254ZM1050.96 381.5V243C1050.96 230.333 1046.96 220.167 1038.96 212.5C1031.29 204.5 1021.46 200.5 1009.46 200.5C1001.13 200.5 993.794 202.333 987.461 206C981.128 209.333 976.128 214.333 972.461 221C968.794 227.333 966.961 234.667 966.961 243L937.461 228.5C937.461 209.5 941.461 192.833 949.461 178.5C957.461 164.167 968.628 153.167 982.961 145.5C997.294 137.5 1013.79 133.5 1032.46 133.5C1051.46 133.5 1068.13 137.5 1082.46 145.5C1096.79 153.167 1107.79 164 1115.46 178C1123.46 191.667 1127.46 207.667 1127.46 226V381.5H1050.96ZM890.461 381.5V18.5H966.961V381.5H890.461ZM1293.59 387C1268.59 387 1245.93 381.5 1225.59 370.5C1205.59 359.167 1189.76 343.833 1178.09 324.5C1166.43 305.167 1160.59 283.5 1160.59 259.5C1160.59 235.5 1166.43 214 1178.09 195C1189.76 176 1205.59 161 1225.59 150C1245.59 138.667 1268.26 133 1293.59 133C1318.93 133 1341.59 138.5 1361.59 149.5C1381.59 160.5 1397.43 175.667 1409.09 195C1420.76 214 1426.59 235.5 1426.59 259.5C1426.59 283.5 1420.76 305.167 1409.09 324.5C1397.43 343.833 1381.59 359.167 1361.59 370.5C1341.59 381.5 1318.93 387 1293.59 387ZM1293.59 317.5C1304.59 317.5 1314.26 315.167 1322.59 310.5C1330.93 305.5 1337.26 298.667 1341.59 290C1346.26 281 1348.59 270.833 1348.59 259.5C1348.59 248.167 1346.26 238.333 1341.59 230C1336.93 221.333 1330.43 214.667 1322.09 210C1314.09 205 1304.59 202.5 1293.59 202.5C1282.93 202.5 1273.43 205 1265.09 210C1256.76 214.667 1250.26 221.333 1245.59 230C1240.93 238.667 1238.59 248.667 1238.59 260C1238.59 271 1240.93 281 1245.59 290C1250.26 298.667 1256.76 305.5 1265.09 310.5C1273.43 315.167 1282.93 317.5 1293.59 317.5ZM1568.18 386.5C1545.18 386.5 1524.68 381 1506.68 370C1489.01 359 1475.01 344 1464.68 325C1454.68 306 1449.68 284.333 1449.68 260C1449.68 235.667 1454.68 214 1464.68 195C1475.01 176 1489.01 161 1506.68 150C1524.68 139 1545.18 133.5 1568.18 133.5C1584.85 133.5 1599.85 136.667 1613.18 143C1626.85 149.333 1638.01 158.167 1646.68 169.5C1655.68 180.5 1660.68 193.167 1661.68 207.5V310C1660.68 324.333 1655.85 337.333 1647.18 349C1638.51 360.333 1627.35 369.5 1613.68 376.5C1600.01 383.167 1584.85 386.5 1568.18 386.5ZM1581.68 317.5C1592.68 317.5 1602.18 315.167 1610.18 310.5C1618.18 305.5 1624.51 298.667 1629.18 290C1633.85 281.333 1636.18 271.333 1636.18 260C1636.18 248.667 1633.85 238.833 1629.18 230.5C1624.85 221.833 1618.51 215 1610.18 210C1602.18 205 1592.85 202.5 1582.18 202.5C1571.51 202.5 1562.01 205 1553.68 210C1545.68 215 1539.18 221.833 1534.18 230.5C1529.51 239.167 1527.18 249 1527.18 260C1527.18 271 1529.51 280.833 1534.18 289.5C1538.85 298.167 1545.35 305 1553.68 310C1562.01 315 1571.35 317.5 1581.68 317.5ZM1708.18 381.5H1633.18V316L1644.68 257L1631.68 198V18.5H1708.18V381.5ZM1882.04 387C1855.71 387 1832.21 381.667 1811.54 371C1791.21 360 1775.21 344.833 1763.54 325.5C1751.88 306.167 1746.04 284.333 1746.04 260C1746.04 235.667 1751.71 214 1763.04 195C1774.71 175.667 1790.38 160.5 1810.04 149.5C1829.71 138.5 1851.88 133 1876.54 133C1900.54 133 1921.71 138.167 1940.04 148.5C1958.38 158.833 1972.71 173.167 1983.04 191.5C1993.71 209.833 1999.04 230.833 1999.04 254.5C1999.04 258.833 1998.71 263.5 1998.04 268.5C1997.71 273.167 1996.88 278.667 1995.54 285L1786.04 285.5V233L1963.04 232.5L1930.04 254.5C1929.71 240.5 1927.54 229 1923.54 220C1919.54 210.667 1913.54 203.667 1905.54 199C1897.88 194 1888.38 191.5 1877.04 191.5C1865.04 191.5 1854.54 194.333 1845.54 200C1836.88 205.333 1830.04 213 1825.04 223C1820.38 233 1818.04 245.167 1818.04 259.5C1818.04 273.833 1820.54 286.167 1825.54 296.5C1830.88 306.5 1838.21 314.333 1847.54 320C1857.21 325.333 1868.54 328 1881.54 328C1893.54 328 1904.38 326 1914.04 322C1923.71 317.667 1932.21 311.333 1939.54 303L1981.54 345C1969.54 359 1955.04 369.5 1938.04 376.5C1921.04 383.5 1902.38 387 1882.04 387Z" fill="black"/>
</svg>
