<?xml version="1.0" encoding="UTF-8"?> <!-- Generator: Adobe Illustrator 27.0.0, SVG Export Plug-In . SVG Version: 6.00 Build 0) --> <svg xmlns="http://www.w3.org/2000/svg" xmlns:xlink="http://www.w3.org/1999/xlink" version="1.1" id="Calque_1" x="0px" y="0px" viewBox="0 0 1662 500" style="enable-background:new 0 0 1662 500;" xml:space="preserve"> <style type="text/css"> .st0{fill:#FFFFFF;} </style> <g> <g> <g> <path class="st0" d="M416.7,121.4c0,7.5-0.7,18.9-1.8,31.5c-1.4,15.8-3.6,32.4-6.2,48.1c-3.2,19.5-7.2,37.7-11.7,53.9 c-5.4,19.2-11.6,35.7-18.4,48.9c-0.1,0.3-0.4,0.4-0.7,0.4c0,0,0,0,0,0c-0.3,0-0.6-0.2-0.7-0.5c-4.7-12.2-12-25.1-12.1-25.3 c-0.1-0.2-0.1-0.5,0-0.7c24.8-55.6,28.7-135.2,29.2-150.5c0.5-14.1-4.8-16.9-9.1-19.2c-0.2-0.1-0.5-0.2-0.7-0.4 c-1.9-1-29.8-13.1-31.5-13.8l-40.2-16.7L270.4,61c-6-2.2-10.7-3.7-19.3-6.5c-1.2-0.4-2.4-0.8-3.5-1.1c-9-3-15.5-5.1-21.8-5.1 c-0.6,0-1.2,0-1.8,0c-0.6,0-1.2,0-1.8,0c-6.3,0-12.8,2.2-21.8,5.1c-1.1,0.4-2.3,0.8-3.5,1.1c-8.6,2.8-13.3,4.4-19.3,6.5 l-42.3,16.1L95.1,93.8c-1.7,0.7-29.6,12.8-31.5,13.8c-0.2,0.1-0.5,0.2-0.7,0.4c-4.3,2.3-9.6,5.1-9.1,19.2 c0.5,15.4,4.5,94.9,29.2,150.5c0.1,0.2,0.1,0.5,0,0.7c-0.1,0.1-7.4,13-12.1,25.3c-0.1,0.3-0.4,0.5-0.7,0.5c0,0,0,0,0,0 c-0.3,0-0.6-0.2-0.7-0.4c-6.9-13.2-13.1-29.7-18.4-48.9c-4.5-16.2-8.5-34.3-11.7-53.9c-2.6-15.7-4.7-32.3-6.2-48.1 c-1.1-12.5-1.8-24-1.8-31.5c0-5.2,0.9-10.1,2.5-14.4c1.4-3.6,3.4-6.9,6-9.8c4.5-5.1,9.6-7.6,12.2-8.6c2.2-0.9,4.4-1.8,6.8-2.9 c0,0,0,0,0,0l60.2-25.4c0,0,0,0,0,0l51.7-20.6c0,0,0,0,0,0c6.8-2.6,13.7-4.9,20.7-7c8.6-2.6,20-5.8,25.1-6.9 c2.3-0.5,4.8-0.8,7.4-0.8c2.6,0.1,5.1,0.3,7.4,0.8c5.1,1.1,16.5,4.4,25.1,6.9c6.9,2.1,13.9,4.4,20.7,7c0,0,0,0,0,0l51.7,20.6 c0,0,0,0,0,0l60.2,25.4c0,0,0,0,0,0c2.4,1.1,4.6,2,6.8,2.9c2.6,1.1,7.7,3.6,12.2,8.6c2.6,2.9,4.6,6.1,6,9.8 C415.9,111.4,416.7,116.2,416.7,121.4z"></path> </g> <path class="st0" d="M366.2,318c-3.5-25-19.4-35.2-19.4-35.2l-14.2,29.9c-2.2,4.6-4.9,8.9-8.2,12.9l-13.2,15.9l16.3,5.9 c-16.5,13.2-20.6,18.6-32.1,25.3c-8.6,5-16.3,7.9-21.5,9.6c-3.4,0.3-9.3,0.2-14.6-3.4c-6.8-4.6-9.5-16.6-11-24.5 c-1.5-7.9-4.4-42.7-4.4-119.5c0-8.2,0-18,0.1-29h1.4c2.7,0,4.9-2.2,4.9-4.9v-0.6c0.2-0.1,0.4-0.1,0.7-0.2 c24.7-6.4,37.7-7.7,73.4-10.9c3.4,3.4,8,5.5,13.2,5.5c6.7,0,12.5-3.5,15.8-8.8c1.8-2.8,2.8-6.2,2.8-9.8c0-0.5,0-0.9-0.1-1.4 c-0.7-9.6-8.7-17.1-18.5-17.1c-6.4,0-12.1,3.3-15.4,8.3c0,0,0,0,0,0c-34.7,7.3-40.9,7-73.7,8.2v0c0-2.1-1.7-3.9-3.9-3.9h-0.1 c0.1-7.3,0.3-15,0.5-22.9c11.9-7.2,19.9-20.2,19.9-35.2c0-22.7-18.4-41-41-41s-41,18.4-41,41c0,14.9,8,28,19.9,35.2 c0.2,8,0.4,15.6,0.5,22.9h-0.1c-2.1,0-3.9,1.7-3.9,3.9v0c-32.7-1.2-39-0.9-73.7-8.2c0,0,0,0,0,0c-3.3-5-9-8.3-15.4-8.3 c-9.8,0-17.8,7.6-18.5,17.1c0,0.5-0.1,0.9-0.1,1.4c0,3.6,1,6.9,2.8,9.8c3.3,5.3,9.1,8.8,15.8,8.8c5.2,0,9.8-2.1,13.2-5.5 c35.7,3.2,48.7,4.6,73.4,10.9c0.2,0.1,0.4,0.1,0.7,0.2v0.6c0,2.7,2.2,4.9,4.9,4.9h1.4c0.1,11,0.1,20.7,0.1,29 c0,76.8-2.9,111.6-4.4,119.5s-4.2,19.9-11,24.5c-5.3,3.6-11.2,3.7-14.6,3.4c-5.1-1.6-12.8-4.5-21.5-9.6 c-11.5-6.7-15.6-12.1-32.1-25.3l16.3-5.9l-13.2-15.9c-3.3-3.9-6-8.3-8.2-12.9l-14.2-29.9c0,0-15.8,10.2-19.4,35.2 c-3.5,25-2.1,44.3-2.1,44.3l16.7-6.1c1,6.1,3,14.8,7.7,24.3c3.1,6.3,9.7,17.7,38.7,40.9c3.8,3.1,16.5,13.2,42.1,30 c22.9,15.1,35.1,23.1,39.1,23.5c4-0.4,16.2-8.4,39.1-23.5c25.5-16.8,38.3-26.9,42.1-30c29-23.3,35.6-34.7,38.7-40.9 c4.7-9.5,6.7-18.2,7.7-24.3l16.7,6.1C368.3,362.3,369.7,343,366.2,318z M229.5,132.7c-1.8,0.5-3.6,0.7-5.5,0.7s-3.7-0.2-5.5-0.7 c-9.1-2.4-15.7-10.7-15.7-20.5c0-11.7,9.5-21.2,21.2-21.2s21.2,9.5,21.2,21.2C245.2,122.1,238.6,130.3,229.5,132.7z"></path> </g> <g> <path class="st0" d="M534.9,67.6v214.4h-55.8V67.6H534.9z"></path> <path class="st0" d="M681.8,67.6v214.4h-48.9l-29-97.5v97.5h-46.6V67.6h46.6l31.3,96.5V67.6H681.8z"></path> <path class="st0" d="M816.5,67.6v42.9h-33.1v171.5h-55.8V110.5h-33V67.6H816.5z"></path> <path class="st0" d="M829.2,67.6h93v42.9h-37.2v40.7h34.8V192h-34.8v47.1h40.9v42.9h-96.7V67.6z"></path> <path class="st0" d="M941.9,67.6h39.5c26.3,0,44.1,1,53.4,3c9.3,2,16.9,7.2,22.8,15.6s8.8,21.7,8.8,39.9c0,16.7-2.1,27.9-6.2,33.6 c-4.1,5.7-12.3,9.2-24.5,10.3c11,2.7,18.5,6.4,22.2,11s6.2,8.8,7.1,12.6c0.9,3.8,1.4,14.4,1.4,31.7v56.6h-51.8v-71.3 c0-11.5-0.9-18.6-2.7-21.3c-1.8-2.7-6.6-4.1-14.2-4.1v96.7h-55.8V67.6z M997.6,104.3V152c6.3,0,10.7-0.9,13.2-2.6 c2.5-1.7,3.8-7.3,3.8-16.8v-11.8c0-6.8-1.2-11.3-3.6-13.4C1008.5,105.4,1004.1,104.3,997.6,104.3z"></path> <path class="st0" d="M1088,67.6h56.2c15.2,0,26.9,1.2,35,3.6c8.2,2.4,14.3,5.8,18.4,10.3c4.1,4.5,6.9,10,8.3,16.4 c1.5,6.4,2.2,16.3,2.2,29.7v18.7c0,13.7-1.4,23.7-4.2,29.9s-8,11.1-15.6,14.4c-7.5,3.4-17.4,5-29.6,5h-15v86.4H1088V67.6z M1143.7,104.3v54.6c1.6,0.1,3,0.1,4.1,0.1c5.1,0,8.7-1.3,10.7-3.8c2-2.5,3-7.7,3-15.7v-17.6c0-7.3-1.1-12.1-3.4-14.3 S1151,104.3,1143.7,104.3z"></path> <path class="st0" d="M1351.5,193.2c0,21.5-0.5,36.8-1.5,45.8c-1,9-4.2,17.2-9.5,24.6c-5.3,7.4-12.6,13.1-21.7,17.1 c-9.1,4-19.7,6-31.8,6c-11.5,0-21.8-1.9-30.9-5.6c-9.1-3.8-16.5-9.4-22.1-16.9c-5.6-7.5-8.9-15.7-9.9-24.5 c-1.1-8.8-1.6-24.3-1.6-46.4v-36.7c0-21.5,0.5-36.8,1.5-45.8s4.2-17.2,9.5-24.6c5.3-7.4,12.6-13.1,21.7-17.1c9.1-4,19.7-6,31.8-6 c11.5,0,21.8,1.9,30.9,5.6s16.5,9.4,22.1,16.9c5.6,7.5,8.9,15.7,9.9,24.5c1.1,8.8,1.6,24.3,1.6,46.4V193.2z M1295.8,122.7 c0-10-0.6-16.4-1.7-19.1c-1.1-2.8-3.4-4.2-6.8-4.2c-2.9,0-5.1,1.1-6.7,3.4c-1.5,2.3-2.3,8.9-2.3,19.9v100.1 c0,12.4,0.5,20.1,1.5,23c1,2.9,3.4,4.4,7.1,4.4c3.8,0,6.2-1.7,7.3-5c1.1-3.4,1.6-11.3,1.6-24V122.7z"></path> <path class="st0" d="M1372.3,67.6h39.5c26.3,0,44.1,1,53.4,3c9.3,2,16.9,7.2,22.8,15.6s8.8,21.7,8.8,39.9 c0,16.7-2.1,27.9-6.2,33.6c-4.1,5.7-12.3,9.2-24.5,10.3c11,2.7,18.5,6.4,22.3,11c3.8,4.6,6.2,8.8,7.1,12.6 c0.9,3.8,1.4,14.4,1.4,31.7v56.6H1445v-71.3c0-11.5-0.9-18.6-2.7-21.3c-1.8-2.7-6.6-4.1-14.2-4.1v96.7h-55.8V67.6z M1428.1,104.3 V152c6.3,0,10.7-0.9,13.2-2.6c2.5-1.7,3.8-7.3,3.8-16.8v-11.8c0-6.8-1.2-11.3-3.6-13.4S1434.5,104.3,1428.1,104.3z"></path> <path class="st0" d="M1630.7,67.6v42.9h-33.1v171.5h-55.8V110.5h-33V67.6H1630.7z"></path> </g> <g> <path class="st0" d="M475.4,371.2c0-27.6,20.3-46.4,45.8-46.4c16.3,0,27.3,7.7,34.5,17.8l-9.4,5.3c-5.1-7.5-14.4-13.1-25.1-13.1 c-19.3,0-34.2,15.1-34.2,36.5c0,21.3,15,36.5,34.2,36.5c10.6,0,19.9-5.4,25.1-13.1l9.6,5.2c-7.5,10.2-18.3,17.8-34.6,17.8 C495.7,417.6,475.4,398.8,475.4,371.2z"></path> <path class="st0" d="M593.9,416v-65H604v10.5c5.3-6.9,12.8-11.8,21.7-11.8V360c-1.2-0.3-2.4-0.4-4-0.4c-6.2,0-14.7,5.1-17.6,10.4 v46H593.9z"></path> <path class="st0" d="M690.9,349.3c19.7,0,31.2,15.3,31.2,34.9v2.6h-52.7c0.8,12.3,9.4,22.5,23.4,22.5c7.4,0,15-3,20.1-8.2l4.8,6.6 c-6.5,6.5-15.2,10-25.9,10c-19.3,0-33.1-13.9-33.1-34.2C658.8,364.6,672.3,349.3,690.9,349.3z M669.5,379.4h42.7 c-0.1-9.7-6.6-21.7-21.4-21.7C676.9,357.7,670,369.4,669.5,379.4z"></path> <path class="st0" d="M819,416l-17-52.2l-17,52.2h-10.1l-20.7-65h10.5l15.9,51.8l17.1-51.8h8.6l17.1,51.8l15.9-51.8h10.5l-20.7,65 H819z"></path> <path class="st0" d="M946.4,394.9c5.9,6.6,15.6,12.8,28.3,12.8c16,0,21.1-8.6,21.1-15.5c0-10.8-10.9-13.7-22.8-17 c-14.4-3.8-30.4-7.8-30.4-25.4c0-14.8,13.2-24.9,30.8-24.9c13.7,0,24.4,4.6,31.9,12.5l-6.7,8.2c-6.7-7.4-16.2-10.8-26-10.8 c-10.8,0-18.5,5.8-18.5,14.3c0,9,10.4,11.7,21.8,14.8c14.7,3.9,31.4,8.5,31.4,27.3c0,13.1-8.9,26.4-33.1,26.4 c-15.6,0-27.1-5.9-34.5-14.3L946.4,394.9z"></path> <path class="st0" d="M1076.3,349.3c19.7,0,31.3,15.3,31.3,34.9v2.6h-52.7c0.8,12.3,9.4,22.5,23.4,22.5c7.4,0,14.9-3,20.1-8.2 l4.9,6.6c-6.5,6.5-15.2,10-25.9,10c-19.3,0-33.1-13.9-33.1-34.2C1044.2,364.6,1057.7,349.3,1076.3,349.3z M1054.9,379.4h42.7 c-0.1-9.7-6.6-21.7-21.4-21.7C1062.3,357.7,1055.4,369.4,1054.9,379.4z"></path> <path class="st0" d="M1148.1,416v-65h10.1v10.5c5.3-6.9,12.8-11.8,21.7-11.8V360c-1.2-0.3-2.4-0.4-4-0.4 c-6.2,0-14.7,5.1-17.6,10.4v46H1148.1z"></path> <path class="st0" d="M1234.2,416l-27.1-65h10.9l21.7,53.3l21.6-53.3h11l-27.1,65H1234.2z"></path> <path class="st0" d="M1305.3,333.2c0-3.8,3.1-6.7,6.7-6.7c3.8,0,6.9,3,6.9,6.7c0,3.8-3.1,6.9-6.9,6.9 C1308.4,340.1,1305.3,337,1305.3,333.2z M1307,416v-65h10.1v65H1307z"></path> <path class="st0" d="M1390.3,349.3c11.9,0,18.9,4.8,23.8,11.3l-6.7,6.2c-4.3-5.9-9.8-8.5-16.6-8.5c-13.9,0-22.5,10.6-22.5,25 c0,14.4,8.6,25.2,22.5,25.2c6.7,0,12.3-2.7,16.6-8.5l6.7,6.2c-5,6.5-12,11.3-23.8,11.3c-19.4,0-32.5-14.8-32.5-34.2 C1357.8,364.2,1370.9,349.3,1390.3,349.3z"></path> <path class="st0" d="M1480.8,349.3c19.7,0,31.3,15.3,31.3,34.9v2.6h-52.7c0.8,12.3,9.4,22.5,23.4,22.5c7.4,0,14.9-3,20.1-8.2 l4.9,6.6c-6.5,6.5-15.2,10-25.9,10c-19.3,0-33.1-13.9-33.1-34.2C1448.8,364.6,1462.2,349.3,1480.8,349.3z M1459.4,379.4h42.7 c-0.1-9.7-6.6-21.7-21.4-21.7C1466.8,357.7,1459.9,369.4,1459.4,379.4z"></path> <path class="st0" d="M1552.2,400.1c4.3,5,12.5,9.3,21.4,9.3c10,0,15.4-4.4,15.4-10.8c0-7.1-7.9-9.4-16.7-11.6 c-11-2.6-23.6-5.5-23.6-19c0-10.1,8.8-18.7,24.2-18.7c11,0,18.9,4.2,24.1,9.4l-4.7,7c-3.9-4.7-11-8.2-19.4-8.2 c-8.9,0-14.4,4-14.4,9.8c0,6.3,7.4,8.3,15.9,10.4c11.3,2.6,24.4,5.8,24.4,20.2c0,10.9-8.8,19.7-25.6,19.7 c-10.6,0-19.7-3.2-26.3-10.2L1552.2,400.1z"></path> </g> </g> </svg> 