<svg width="866" height="531" viewBox="0 0 866 531" fill="none" xmlns="http://www.w3.org/2000/svg">
<g filter="url(#filter0_dddddddd_249_479)">
<path d="M188.051 466.509C145.032 490.601 75.2837 490.601 32.2645 466.509C-10.7548 442.417 -10.7548 403.356 32.2644 379.264C75.2837 355.172 145.032 355.172 188.051 379.264C231.07 403.356 231.07 442.417 188.051 466.509Z" fill="white"/>
<path d="M833.007 105.314C789.988 129.406 720.24 129.406 677.221 105.314C634.201 81.2221 634.201 42.1611 677.221 18.069C720.24 -6.02302 789.988 -6.02302 833.007 18.069C876.026 42.1611 876.026 81.2221 833.007 105.314Z" fill="white"/>
<path d="M679.557 72.5972L734.862 103.569L198.177 404.128L142.873 373.156L679.557 72.5972Z" fill="white"/>
<path d="M813.534 93.536C781.699 111.364 730.086 111.364 698.252 93.536C666.417 75.7079 666.417 46.8028 698.252 28.9747C730.086 11.1465 781.699 11.1465 813.534 28.9747C845.368 46.8028 845.368 75.7079 813.534 93.536Z" fill="black"/>
<path d="M169.357 454.294C137.522 472.123 85.9088 472.123 54.0745 454.294C22.2403 436.466 22.2403 407.561 54.0745 389.733C85.9088 371.905 137.522 371.905 169.357 389.733C201.191 407.561 201.191 436.466 169.357 454.294Z" fill="black"/>
</g>
<defs>
<filter id="filter0_dddddddd_249_479" x="0" y="0" width="865.271" height="530.267" filterUnits="userSpaceOnUse" color-interpolation-filters="sRGB">
<feFlood flood-opacity="0" result="BackgroundImageFix"/>
<feColorMatrix in="SourceAlpha" type="matrix" values="0 0 0 0 0 0 0 0 0 0 0 0 0 0 0 0 0 0 127 0" result="hardAlpha"/>
<feOffset dy="5.71111"/>
<feColorMatrix type="matrix" values="0 0 0 0 0.175 0 0 0 0 0.175 0 0 0 0 0.175 0 0 0 1 0"/>
<feBlend mode="normal" in2="BackgroundImageFix" result="effect1_dropShadow_249_479"/>
<feColorMatrix in="SourceAlpha" type="matrix" values="0 0 0 0 0 0 0 0 0 0 0 0 0 0 0 0 0 0 127 0" result="hardAlpha"/>
<feOffset dy="11.4222"/>
<feColorMatrix type="matrix" values="0 0 0 0 0.175 0 0 0 0 0.175 0 0 0 0 0.175 0 0 0 1 0"/>
<feBlend mode="normal" in2="effect1_dropShadow_249_479" result="effect2_dropShadow_249_479"/>
<feColorMatrix in="SourceAlpha" type="matrix" values="0 0 0 0 0 0 0 0 0 0 0 0 0 0 0 0 0 0 127 0" result="hardAlpha"/>
<feOffset dy="17.1333"/>
<feColorMatrix type="matrix" values="0 0 0 0 0.175 0 0 0 0 0.175 0 0 0 0 0.175 0 0 0 1 0"/>
<feBlend mode="normal" in2="effect2_dropShadow_249_479" result="effect3_dropShadow_249_479"/>
<feColorMatrix in="SourceAlpha" type="matrix" values="0 0 0 0 0 0 0 0 0 0 0 0 0 0 0 0 0 0 127 0" result="hardAlpha"/>
<feOffset dy="22.8444"/>
<feColorMatrix type="matrix" values="0 0 0 0 0.175 0 0 0 0 0.175 0 0 0 0 0.175 0 0 0 1 0"/>
<feBlend mode="normal" in2="effect3_dropShadow_249_479" result="effect4_dropShadow_249_479"/>
<feColorMatrix in="SourceAlpha" type="matrix" values="0 0 0 0 0 0 0 0 0 0 0 0 0 0 0 0 0 0 127 0" result="hardAlpha"/>
<feOffset dy="28.5556"/>
<feColorMatrix type="matrix" values="0 0 0 0 0.175 0 0 0 0 0.175 0 0 0 0 0.175 0 0 0 1 0"/>
<feBlend mode="normal" in2="effect4_dropShadow_249_479" result="effect5_dropShadow_249_479"/>
<feColorMatrix in="SourceAlpha" type="matrix" values="0 0 0 0 0 0 0 0 0 0 0 0 0 0 0 0 0 0 127 0" result="hardAlpha"/>
<feOffset dy="34.2667"/>
<feColorMatrix type="matrix" values="0 0 0 0 0.175 0 0 0 0 0.175 0 0 0 0 0.175 0 0 0 1 0"/>
<feBlend mode="normal" in2="effect5_dropShadow_249_479" result="effect6_dropShadow_249_479"/>
<feColorMatrix in="SourceAlpha" type="matrix" values="0 0 0 0 0 0 0 0 0 0 0 0 0 0 0 0 0 0 127 0" result="hardAlpha"/>
<feOffset dy="39.9778"/>
<feColorMatrix type="matrix" values="0 0 0 0 0.175 0 0 0 0 0.175 0 0 0 0 0.175 0 0 0 1 0"/>
<feBlend mode="normal" in2="effect6_dropShadow_249_479" result="effect7_dropShadow_249_479"/>
<feColorMatrix in="SourceAlpha" type="matrix" values="0 0 0 0 0 0 0 0 0 0 0 0 0 0 0 0 0 0 127 0" result="hardAlpha"/>
<feOffset dy="45.6889"/>
<feColorMatrix type="matrix" values="0 0 0 0 0.175 0 0 0 0 0.175 0 0 0 0 0.175 0 0 0 1 0"/>
<feBlend mode="normal" in2="effect7_dropShadow_249_479" result="effect8_dropShadow_249_479"/>
<feBlend mode="normal" in="SourceGraphic" in2="effect8_dropShadow_249_479" result="shape"/>
</filter>
</defs>
</svg>
