<svg width="960" height="770" viewBox="0 0 960 770" fill="none" xmlns="http://www.w3.org/2000/svg">
<g clip-path="url(#clip0_276_71)">
<path d="M875.852 0.501999H10.379C4.85618 0.501999 0.379028 4.97915 0.379028 10.502V557.598C0.379028 563.121 4.85618 567.598 10.379 567.598H875.852C881.375 567.598 885.852 563.121 885.852 557.598V10.502C885.852 4.97915 881.375 0.501999 875.852 0.501999Z" fill="#E6E6E6"/>
<path d="M852.531 71.63H33.6981C29.2798 71.63 25.6981 75.2117 25.6981 79.63V526.049C25.6981 530.467 29.2798 534.049 33.6981 534.049H852.531C856.949 534.049 860.531 530.467 860.531 526.049V79.63C860.531 75.2117 856.949 71.63 852.531 71.63Z" fill="white"/>
<path d="M10 0H875.473C878.125 0 880.669 1.05357 882.544 2.92893C884.419 4.8043 885.473 7.34784 885.473 10V37.618H0V10C0 7.34784 1.05357 4.8043 2.92893 2.92893C4.8043 1.05357 7.34784 0 10 0Z" fill="#FAA140"/>
<path d="M27.955 26.204C31.8056 26.204 34.927 23.0825 34.927 19.232C34.927 15.3815 31.8056 12.26 27.955 12.26C24.1045 12.26 20.983 15.3815 20.983 19.232C20.983 23.0825 24.1045 26.204 27.955 26.204Z" fill="white"/>
<path d="M54.4201 26.204C58.2706 26.204 61.3921 23.0825 61.3921 19.232C61.3921 15.3815 58.2706 12.26 54.4201 12.26C50.5695 12.26 47.4481 15.3815 47.4481 19.232C47.4481 23.0825 50.5695 26.204 54.4201 26.204Z" fill="white"/>
<path d="M80.885 26.204C84.7356 26.204 87.857 23.0825 87.857 19.232C87.857 15.3815 84.7356 12.26 80.885 12.26C77.0345 12.26 73.913 15.3815 73.913 19.232C73.913 23.0825 77.0345 26.204 80.885 26.204Z" fill="white"/>
<path d="M112.555 119.609H305.066C307.983 119.609 310.781 120.768 312.844 122.831C314.907 124.894 316.066 127.692 316.066 130.609V475.066C316.066 477.983 314.907 480.781 312.844 482.844C310.781 484.907 307.983 486.066 305.066 486.066H112.555C109.638 486.066 106.84 484.907 104.777 482.844C102.714 480.781 101.555 477.983 101.555 475.066V130.609C101.555 127.692 102.714 124.894 104.777 122.831C106.84 120.768 109.638 119.609 112.555 119.609Z" fill="#E6E6E6"/>
<path d="M364.097 119.609H520.856C522.301 119.609 523.731 119.894 525.066 120.446C526.4 120.999 527.613 121.809 528.634 122.831C529.656 123.852 530.466 125.065 531.019 126.399C531.572 127.734 531.856 129.164 531.856 130.609V209.479C531.856 210.924 531.572 212.354 531.019 213.689C530.466 215.023 529.656 216.236 528.634 217.257C527.613 218.279 526.4 219.089 525.066 219.642C523.731 220.194 522.301 220.479 520.856 220.479H364.097C361.18 220.479 358.382 219.32 356.319 217.257C354.256 215.194 353.097 212.396 353.097 209.479V130.609C353.097 127.692 354.256 124.894 356.319 122.831C358.382 120.768 361.18 119.609 364.097 119.609Z" fill="#FAA140"/>
<path d="M364.097 248.573H520.856C522.301 248.573 523.731 248.858 525.066 249.41C526.4 249.963 527.613 250.773 528.634 251.795C529.656 252.816 530.466 254.029 531.019 255.363C531.572 256.698 531.856 258.128 531.856 259.573V346.104C531.856 347.549 531.572 348.979 531.019 350.314C530.466 351.648 529.656 352.861 528.634 353.882C527.613 354.904 526.4 355.714 525.066 356.267C523.731 356.819 522.301 357.104 520.856 357.104H364.097C361.18 357.104 358.382 355.945 356.319 353.882C354.256 351.819 353.097 349.021 353.097 346.104V259.573C353.097 256.656 354.256 253.858 356.319 251.795C358.382 249.732 361.18 248.573 364.097 248.573Z" fill="#E6E6E6"/>
<path d="M364.097 385.197H520.856C522.301 385.197 523.731 385.482 525.066 386.034C526.4 386.587 527.613 387.397 528.634 388.419C529.656 389.44 530.466 390.653 531.019 391.988C531.572 393.322 531.856 394.752 531.856 396.197V475.067C531.856 476.512 531.572 477.942 531.019 479.277C530.466 480.611 529.656 481.824 528.634 482.845C527.613 483.867 526.4 484.677 525.066 485.23C523.731 485.782 522.301 486.067 520.856 486.067H364.097C361.18 486.067 358.382 484.908 356.319 482.845C354.256 480.782 353.097 477.984 353.097 475.067V396.197C353.097 393.28 354.256 390.482 356.319 388.419C358.382 386.356 361.18 385.197 364.097 385.197Z" fill="#E6E6E6"/>
<path d="M581.163 119.609H773.674C776.591 119.609 779.389 120.768 781.452 122.831C783.515 124.894 784.674 127.692 784.674 130.609V268.309C784.674 271.226 783.515 274.024 781.452 276.087C779.389 278.15 776.591 279.309 773.674 279.309H581.163C578.246 279.309 575.448 278.15 573.385 276.087C571.322 274.024 570.163 271.226 570.163 268.309V130.609C570.163 127.692 571.322 124.894 573.385 122.831C575.448 120.768 578.246 119.609 581.163 119.609Z" fill="#E6E6E6"/>
<path d="M581.163 326.368H773.674C776.591 326.368 779.389 327.527 781.452 329.59C783.515 331.653 784.674 334.451 784.674 337.368V475.068C784.674 477.985 783.515 480.783 781.452 482.846C779.389 484.909 776.591 486.068 773.674 486.068H581.163C578.246 486.068 575.448 484.909 573.385 482.846C571.322 480.783 570.163 477.985 570.163 475.068V337.368C570.163 334.451 571.322 331.653 573.385 329.59C575.448 327.527 578.246 326.368 581.163 326.368Z" fill="#E6E6E6"/>
<path opacity="0.3" d="M366.307 303.313C339.619 280.791 322.376 249.057 318.003 214.411C313.63 179.765 322.446 144.741 342.7 116.294C340.04 118.973 337.469 121.778 334.986 124.71C323.204 138.673 314.288 154.819 308.747 172.228C303.205 189.636 301.147 207.966 302.689 226.169C304.231 244.373 309.344 262.095 317.735 278.323C326.126 294.552 337.632 308.968 351.595 320.749C365.557 332.531 381.704 341.447 399.112 346.989C416.521 352.53 434.85 354.589 453.054 353.046C471.258 351.504 488.98 346.391 505.208 338C521.436 329.609 535.852 318.104 547.634 304.141C550.111 301.208 552.445 298.201 554.634 295.121C530 319.873 496.958 334.455 462.07 335.972C427.182 337.49 392.999 325.832 366.309 303.313H366.307Z" fill="black"/>
<path d="M959.086 768.208H610.268C609.762 768.208 609.352 767.592 609.352 766.833C609.352 766.074 609.762 765.458 610.268 765.458H959.086C959.592 765.458 960.002 766.074 960.002 766.833C960.002 767.592 959.586 768.208 959.086 768.208Z" fill="#E6E6E6"/>
<path d="M732.737 442.988L747.044 414.788L763.506 423.141L749.199 451.341C749.974 453.793 750.253 456.375 750.019 458.937C749.786 461.498 749.044 463.987 747.839 466.259C743.379 475.048 733.868 479.18 726.594 475.489C719.32 471.798 717.039 461.682 721.499 452.889C722.621 450.575 724.192 448.507 726.122 446.806C728.051 445.105 730.299 443.806 732.736 442.983L732.737 442.988Z" fill="#ED9DA0"/>
<path d="M815.237 352.994L750.556 454.811L731.151 437.431L778.011 334.546" fill="#FAA140"/>
<path d="M775.752 384.654L756.052 476.154L841.912 479.154C841.912 479.154 830.664 415.609 834.656 404.627L775.752 384.654Z" fill="#ED9DA0"/>
<path d="M759.351 725.145H739.287V751.59H759.351V725.145Z" fill="#ED9DA0"/>
<path d="M763.411 767.248C764.169 766.717 764.806 766.032 765.281 765.237C765.755 764.442 766.056 763.556 766.164 762.637C766.291 760.726 765.335 758.676 763.323 756.544C763.275 755.93 762.65 748.328 761.259 746.966C761.376 746.559 762.084 743.866 760.923 742.109C760.625 741.686 760.233 741.336 759.779 741.089C759.324 740.841 758.818 740.7 758.301 740.679H758.249L758.223 740.724C758.189 740.783 754.804 746.665 749.71 747.181C746.79 747.481 743.867 745.975 741.021 742.715C740.921 742.474 740.115 738.503 739.596 735.875L739.575 735.77L711.825 750.356L695.605 754.845C694.679 755.101 693.853 755.634 693.238 756.372C692.623 757.111 692.248 758.019 692.162 758.976C692.077 759.933 692.286 760.893 692.76 761.728C693.235 762.564 693.953 763.235 694.819 763.651L702.682 767.431C705.989 769.015 709.609 769.84 713.276 769.845H755.925C758.643 769.861 761.285 768.946 763.412 767.253L763.411 767.248Z" fill="#090814"/>
<path d="M891.673 713.088L872.412 718.686L879.79 744.073L899.052 738.475L891.673 713.088Z" fill="#ED9DA0"/>
<path d="M907.338 752.377C907.918 751.655 908.339 750.818 908.573 749.922C908.807 749.026 908.848 748.09 908.694 747.177C908.282 745.307 906.794 743.605 904.264 742.12C904.046 741.544 901.323 734.42 899.607 733.501C899.607 733.078 899.532 730.289 897.927 728.931C897.522 728.608 897.049 728.382 896.543 728.271C896.037 728.16 895.513 728.167 895.01 728.291L894.959 728.3L894.947 728.351C894.931 728.417 893.323 735.01 888.577 736.928C885.856 738.028 882.629 737.402 878.986 735.067C878.821 734.867 876.939 731.276 875.707 728.898L875.658 728.798L853.087 750.562L838.766 759.399C837.948 759.903 837.304 760.645 836.919 761.526C836.534 762.406 836.427 763.383 836.611 764.326C836.796 765.269 837.264 766.133 837.953 766.803C838.642 767.473 839.518 767.916 840.466 768.075L849.072 769.508C852.69 770.105 856.396 769.886 859.918 768.867L900.869 756.954C903.484 756.21 905.765 754.594 907.334 752.374L907.338 752.377Z" fill="#090814"/>
<path d="M851.188 432.623L765.328 434.623C765.328 434.623 713.153 585.015 715.15 727.778H786.773L791.026 562.05L803.466 734.215L897.85 728.78L851.188 432.623Z" fill="#090814"/>
<path d="M769.067 264.652C769.067 259.011 770.529 253.467 773.312 248.56C776.094 243.653 780.102 239.552 784.943 236.657C789.784 233.761 795.293 232.171 800.932 232.041C806.571 231.91 812.148 233.245 817.118 235.914C822.087 238.583 826.28 242.494 829.286 247.268C832.292 252.041 834.008 257.512 834.268 263.147C834.528 268.781 833.323 274.387 830.769 279.417C828.215 284.447 824.401 288.728 819.698 291.843C822.397 298.566 825.985 304.897 830.368 310.666L798.223 337.454L791.917 295.784C785.291 293.703 779.503 289.561 775.393 283.963C771.283 278.365 769.067 271.601 769.066 264.656L769.067 264.652Z" fill="#ED9DA0"/>
<path d="M791.993 311.423L828.932 302.437L852.61 332.754C858.25 344.26 859.14 357.522 855.088 369.679L835.454 428.579C835.454 428.579 775.554 427.579 762.574 392.638L758.853 384.886C756.357 379.686 755.319 373.906 755.847 368.163C756.375 362.419 758.451 356.926 761.853 352.268L791.993 311.423Z" fill="#FAA140"/>
<path d="M825.084 288.983C822.713 290.673 820.049 291.908 817.228 292.627C820.031 287.804 822.403 282.744 824.318 277.506C824.143 272.761 824.213 269.77 824.213 269.77L824.328 269.035C823.402 268.345 821.833 268.303 819.404 269.193C819.404 269.193 794.194 259.336 801.027 250.005C801.027 250.005 773.548 253.32 773.089 248.541C772.631 243.761 774.931 213.406 811.569 220.257C825.619 222.886 833.318 229.014 837.47 235.572C840.204 235.057 843.016 235.121 845.724 235.76C848.788 236.512 851.944 238.947 854.751 241.798C860.35 247.592 864.517 254.614 866.918 262.304C873.58 282.963 887.142 334.469 858.452 339.191C856.787 339.473 855.096 339.574 853.409 339.493C833.394 338.447 827.066 309.253 825.084 288.983Z" fill="#090814"/>
<path d="M577.03 57.137C549.52 33.9233 515.855 19.2061 480.132 14.7763C444.41 10.3465 408.17 16.3952 375.823 32.1862C343.476 47.9772 316.415 72.8298 297.935 103.72C279.455 134.61 270.351 170.205 271.732 206.174C273.113 242.144 284.919 276.936 305.713 306.319C326.507 335.701 355.393 358.405 388.856 371.67C422.319 384.934 458.916 388.187 494.193 381.031C529.471 373.876 561.908 356.621 587.558 331.366L815.324 523.555C818.79 526.485 823.277 527.918 827.8 527.54C832.322 527.161 836.509 525.001 839.439 521.536C842.369 518.07 843.802 513.582 843.423 509.06C843.044 504.538 840.885 500.351 837.419 497.421L837.394 497.4L609.627 305.211C636.085 267.236 647.409 220.749 641.378 174.859C635.348 128.97 612.398 86.9872 577.027 57.137H577.03ZM562.346 286.705C544.602 307.734 521.021 323.028 494.584 330.655C468.147 338.282 440.043 337.898 413.825 329.551C387.606 321.205 364.452 305.272 347.289 283.767C330.126 262.261 319.725 236.149 317.403 208.732C315.08 181.316 320.939 153.826 334.24 129.74C347.541 105.654 367.685 86.0523 392.125 73.4146C416.566 60.7768 444.205 55.6703 471.548 58.7409C498.891 61.8114 524.709 72.9211 545.738 90.665C559.701 102.447 571.206 116.863 579.598 133.091C587.989 149.319 593.101 167.041 594.644 185.245C596.186 203.449 594.127 221.779 588.586 239.187C583.044 256.596 574.128 272.742 562.346 286.705Z" fill="#3F3D56"/>
<path d="M831.312 506.16L830.626 474.55L849.082 474.15L849.768 505.76C851.609 507.557 853.073 509.703 854.076 512.073C855.078 514.442 855.599 516.987 855.607 519.56C855.821 529.413 849.383 537.544 841.229 537.721C833.075 537.898 826.287 530.049 826.077 520.196C825.975 517.626 826.385 515.062 827.284 512.652C828.182 510.243 829.552 508.035 831.312 506.16Z" fill="#ED9DA0"/>
<path d="M856.793 347.951V501.169H824.741L815.267 349.244" fill="#FAA140"/>
</g>
<defs>
<clipPath id="clip0_276_71">
<rect width="960" height="769.842" fill="white"/>
</clipPath>
</defs>
</svg>
